<mxfile host="65bd71144e">
    <diagram id="XBAjIY8Ri-oCdRLVDdH6" name="第 1 页">
        <mxGraphModel dx="1582" dy="569" grid="1" gridSize="10" guides="1" tooltips="1" connect="1" arrows="1" fold="1" page="1" pageScale="1" pageWidth="850" pageHeight="1100" math="0" shadow="0">
            <root>
                <mxCell id="0"/>
                <mxCell id="1" parent="0"/>
                <mxCell id="10" style="edgeStyle=none;html=1;exitX=0.5;exitY=1;exitDx=0;exitDy=0;entryX=0.466;entryY=-0.005;entryDx=0;entryDy=0;entryPerimeter=0;" parent="1" source="2" target="6" edge="1">
                    <mxGeometry relative="1" as="geometry"/>
                </mxCell>
                <mxCell id="2" value="用户上传数据集" style="rounded=0;whiteSpace=wrap;html=1;" parent="1" vertex="1">
                    <mxGeometry x="60" y="100" width="120" height="60" as="geometry"/>
                </mxCell>
                <mxCell id="13" style="edgeStyle=none;html=1;exitX=1;exitY=0.5;exitDx=0;exitDy=0;entryX=0;entryY=0.5;entryDx=0;entryDy=0;" parent="1" source="4" target="12" edge="1">
                    <mxGeometry relative="1" as="geometry"/>
                </mxCell>
                <mxCell id="4" value="传递数据预处理参数" style="rounded=0;whiteSpace=wrap;html=1;" parent="1" vertex="1">
                    <mxGeometry x="66.68" y="430" width="120" height="60" as="geometry"/>
                </mxCell>
                <mxCell id="11" style="edgeStyle=none;html=1;exitX=0.5;exitY=1;exitDx=0;exitDy=0;entryX=0.5;entryY=0;entryDx=0;entryDy=0;" parent="1" source="6" target="4" edge="1">
                    <mxGeometry relative="1" as="geometry"/>
                </mxCell>
                <mxCell id="6" value="" style="shape=image;verticalLabelPosition=bottom;labelBackgroundColor=#ffffff;verticalAlign=top;aspect=fixed;imageAspect=0;image=data:image/png,iVBORw0KGgoAAAANSUhEUgAABHAAAAIYCAIAAACKY4yAAAAACXBIWXMAAA7EAAAOxAGVKw4bAAAgAElEQVR4nOzdd1gT2dcH8JOEUEJHBBQRFSsW7B1774pdEV27+7OtK7pr72XVtbvKWrH3QrFgQVSsqGBDUeyA0gkECCTvH5eNeWFAiEBI/H4eHp9xcjI5YYaZOTP33uElJSVR/vD4wnxGgspSUiRpMqGODn7VUHikcXKZjM/nGxmbqTsV0B7ipHgZtisobNiuoChgu4KioLxd8dWdDAAAAAAAgKZCQQUAAAAAAKAiFFQAAAAAAAAqQkEFAAAAAACgIhRUAAAAAAAAKkJBBQAAAAAAoCIUVAAAAAAAACpCQQUAAAAAAKAiFFQAAAAAAAAqQkEFAAAAAACgIhRUAAAAAAAAKkJBBQAAAAAAoCIUVAAAAAAAACpCQQWaKiEhPjMjQ91ZAAB8X1xc3JvXrz9++JCamsrmyOXyuLhY9WYFAACFQkfdCQCo6MSRfU71GjZo1FzdiYCmevH82dOnT+/fuyvNkBIRn8cTGRoKBAKpVGpiYlqhQsVmzZvb2pZTd5qgwdLT0y/7Xbzu7y8neXm78gYi0dcvX/T09Jq3aBkXF5uamtqrd1915wgaICoy8v79uw+DguIT4hUzBXyBUCg0Nja2LF26UiWH+vUbmJqZqTFJ0FAP7t979eplUNADmUzG5/EEOt9KA1mmLFOWSUSdOnXu1Lmr+nLUACioQCPFxUY/DQ5KTIhHQQUqq17DsXoNR5FIdOL4UV1d3XXrN+nr6xNRWlrqw4cPjx05fN7Xu0vX7i79B/B4PHUnC5rny5eoLZs2xsXHjRo1um69+oqt6MuXqN07/3316mX7Dp3UmyFoCmsbm+49etWsWXvpkoVENNzVrV69+kbGxikpKW/fht+47n9g/74jhw927NS5T18XgUCg7nxBkzRo2KhBw0apqak3Aq5XrlJl9h9zlV+Ni4s7eMAzLjZOXelpCjT5A410w/+yTCZ7Fx728cNbdecCms3GxoaIeDweq6aISE9Pv2nTZrP/mKOnp3/e1zvgur9aEwSNFBcXu3zp4i9fotxn/VmvfgPlmtzKynr6jJnly9unpCSrMUPQOFbW1myiQsWKpmZmAoHA2Ni4du06E3+d/Ov/pvD5fF8f7+3btsjlcvXmCZrIwqIU53xzc/Phrm5p6WnFnI/GQUEFmkcqTb9zy9/KugwR3fD3U3c6oNlyu5pb2sqqcZMmROR/7WrxZgQaTy6X7/TYIRaLO3bqXK4cR6tRXV1dV7eRKckoqKAABIJcz9nq1W8wctRoIgoKeuDnd7EYkwItwefnunWZmprWqeNUnMloIhRUoHke3A0sV75i154uRBR07zZOSqCIGBsbE1FcHJo6QME8fBj04sVzImrTtn1uMRUrVrK2KVOMSYGWa9ykadWq1YjI+9zZ9PR0dacDWkImk8nl8rr16qs7kZIOBRVonoBrF1u17VinbgNTM3OpNP1O4HV1ZwTaKTQ0lIjK29urOxHQMDcDrhNRmTJlLCws8gjr1btPcWUEPwXnVq2JSCwWh4QEqzsX0BL37939+OGDurPQACioQMO8fvUiPT29Rk0nPl/Q3LkdEd0KuIwm41C45HK517kzr8Ne6enp9+3nou50QMO8fBlKRGXKlM07TNFtD6BQOFSuzCbevA5TbyagHWSZssDAW+rOQjNglD/QMNevXnRu05H18G7Wos1F3zPRX7+8eBZSo2YddacGGkwqlW7butnIyEgul6ekpLx58zo2JsaxZq0BAwfZ2ZVXd3agScTiJIlEQkSGRkbqzgV+LqamWcOmJ8TH5x0JwOnTx49/rVrBpjMyM79++ZKYmNCvX3/1ZqURUFCBJomPiw17+XzoiHHsv8Ympk51GwXdD7zh74eCCn6EQCBo2dJZV1cvIzMjPi5ORyC4F3/3dVjYpYsX+g8YZGJiou4EQWNIpVkPHNfV1VNvJvCzUQyxw8fI6aASa5syY8aNZ9OZmbKIz588PfeqNyVNgYIKNMkNfz+HKtWjo78o5jhUqR50P/D508cx0V9KWVqpMTfQaHw+v7bSKEYtWjp369FrzeqVt27eePHi+fwFi41wtwHyx9DQkE2IxUnqzQR+NomJiWxCcasKoEB0dATm5t96flpaWnbq1EWN+WgQ9KECjSGVSm/f8ufxeJd8zyh+Xr54YmJqJpfLb16/ou4EQauULVt28JChRBQbE3PlMkbnh/zS1dW1trYmoq9fv3w3GKAQhYe/YRNVqlRRbyagNeo4OZmaoT7/PtyhAo3x4N4tu/IVRo2bkm1+wLVLJ4963gn079qzn1Coq5bcQCvVqlWbTXz69FG9mYBmqVuv/oXzvm/Dw8ViMe5tQrG5ezuQiExNzWo41lR3LqAlrKys1Z2CZsAdKtAYAdcuObfpmHN+o6Yt9fT0U5KTH96/XfxZgRZTPBs+78GvAbJp176Drq6uTCa77HcpjzBfH2+pVFpsWYF2e/XqZVDQAyLq3aevUChUdzqgVTIyMo4eOazuLEo0FFSgGV6FPpOkJNeoyfGsbn19A6f6jYnI/+pFjJ8OBZWRmZnbS5f9/IiIx+O1dG5VjBmBxitVytKl/0Ai8vXxfvXqJWeM/7WrFhYWOPGF/MvMyHVn9fHjx3+2bpHL5S2dW7Vq3aYYkwItIZPJiCi3c6jTp05WqFChOPPROCioQAPIZJlep4/aV6zMRkvPqUKlykT0+eP7e3duFG9qoPGiv34lIrlczoa6ZhISEo4eOXze15vH47mOGGlrW059CYJGat+hY89efTIzM9b+tfrCeV/lrUssTjp+7GhKSnKTps3UmCFonOiYaDaRkpysmBkfH+917uyKZUtSUyX9XAaMHDVaTdmBZouLiyWihIR4WaZMeX5aWtq5s2euXvFzqltPTalpBl5SUn6HIeLxcSGtyKWkSNJkQh0d/Kq/efEs+Lz36XfhYTo6wsbNnJs2b21nX1E5wO/8uds3r8XEfCUiPl/QoHGzjl16l0arXwVpnFwm4/P5RsboV/r/vHj+7MmTJ1evXE5LS2VzTE3NRCKD9HSpRJJiZm7uUKly+46dypVDNcVBnBQvw3b1PaEvXpw+dSIs7JVQKCxb1tbU1DQpKUnfwKBzl641a9ZSd3YlEbYrTlGRkffu3Q28dSMqKorNERkamhibyEmemZFRpqxtjRo1mrdoaWRkrN48SyxsV3l4cP9e6IsXV69eZm18RIaGBvoG7KWMDGlSUpJMJmvUuMn4CZPUmmZJpLxdoaAqWVBQQeFDQQVFACco+ZcQHx8RGSFOSjIyNrayskaXvDxgu4KigO0KioLydoVR/gAAAIqQqZkZxh0GANBi6EMFAAAAAACgIhRUAAAAAAAAKkJBBQAAAAAAoCIUVAAAAAAAACpCQQUAAAAAAKAiFFQAAAAAAAAqQkEFAAAAAACgIhRUAAAAAAAAKkJBBQAAAAAAoCIUVAAAAAAAACpCQQUAAAAAAKAiFFQAAAAAAAAqQkEFAAAAAACgIhRUAAAAAAAAKkJBBQAAAAAAoCIUVAAAAAAAACpCQQUAAAAAAKAiFFQAAAAAAAAqQkEFAAAAAACgIhRUAAAAAAAAKtJRdwLw//B4xJNnkEzdeYA2kcuJSC6XZ2RI1Z0KaA85tisoAtiuoChgu4KioLxd8ZKSkvL5NmmGXC7LLMrEgIgoLU2i7hQAAAAAACBfCnCHKjmdx5OjiWCRkvJl6WM9y6g7DdBaywdK/zwqzDm/eln58oFZ1+3uv+EvP8uxZ2hYSfZnrww2ffUZf9NFjpi2jrLJnbJizgYJ9lwX5IzpVT9zZKusSzMHbwmO3+WIGdo8s3/jrJjtV3QuBHPseca3y+hcJ+tm7lofnZsvOWJmdMtoUTUrZuFJneD3HDEL+2XUKZ8V8/tB4ZsvvJwxa4ZKK1nJsz53p/BrEkfM9l+kpU2yYoZu0U3lugx68Nd0fSERUUYmDdykmzNAR0BHJ6ez6bhk3mgPjpVlbijfOTZr6R9ieFM9OWLsSsk3uGbFPPvEm3uMI6ZmOfmS/lkxd17zV53jWKGNHWSze2at0MtP+VsuccS0ryn7tWNWzOkHgn0BHCu0T4PMEc5ZK3T/TcHJexwxw1tk9muUFbPNT+fSE46VNbF9RsfaWSvrLy+dwDCOmJk9MppVzopZcEIn5ANHzJIBGTVts2Km7xe+i+ZYoX8Pl9pbZq3Qsf8KY8QcMR5jpKWMsmIGb9ZNz8gZQof/l66rQ0SUnkGDN3OsdF0dOvy/rJUeI+aN/ZdjZZUyknuMyVpZ76J50/dzxNhbyv8enhXz9BN/3jGOlVXbTrbIJSvLwDD+X14cMc0qy2b2yIq5FMLfdpkjpmMt2cQOWTEn7wn23+RYof0aZQ5vkbVC9wUITj/giBnhnNmnQVbMlks6l59yrKxfO2a0r5m1slae07n7miNmVs+MJg5ZMfOOC59+5FhZSwdIHW2zVtZUT+GHGI6YDa5Su1JZMaM9hHHJHDE7x0rNDbNiBm7SzeC6znx0crqOgIgoVUpDt3CsdH0hHfw1a6V/TeSN38WxQksby7ePzlqhb77wfj/IEVPJSr5maFZM8Hv+wpMcK6tOednCflkr6+ZL/lofjpgWVWUzumXFXAjmb7/CEdO5jmx8u6yY43cFB29xrND+jTOHNs/6jey5LjgbxBEzslVmr/pZMZsu6lx9xrFCJ3fKaOuYtUKXn9W5/4Yj5s9eGQ0rZcX8eVT44jPHylo+UFq9bNbKmrSLH5nI8b02jZDaWmTF/LJdGC/hWM6eCVIT/ayY/ht0ZfKcIXR8ajqfR0SUkkbDt3GsdJEe7Z+YtdKjEngTd3OsUGtT+bZRWSs0LIrnfogjprK1fPWQrJhH7/iLT3F8qbr2svl9s1ZWQCj/b1+OGOdqsulds2J8Hws8rnKsrG5OmWPaZq2so3cEhwM5YgY2yRzcLCtmp7/A+yFHzC+tM3vUy4rZcF7H/wXHCp3aOaN1jawVuvS0TtBbjpi5fTLqV8iKmX1Y+DKSY2WtHCytapO1hn7dI4yI54jZMlJaxiwrxu0f3aTUnCG0d0K6sX7WdL/1HCuUiE5OS4+Ojra0tKQCFVQ6OtyLg0KTKZfL0tWdBGgzoZBj70xEPB5PVzfrD1wnl70Cn88vUIyAY6fK5gt0dQX5j+HnchlHR0fnv48qtBgex46XiEgoFBYoJje6urq6QiIifu43+xW/QGEuOwPllZXL+ixwjLau9NxWVnGvdPary/2CZLGtUB6vYCtUm1Z6QVfoD650VlDJclkIFeNKL+gKzS1GINDslU7EdcEjW8yPrXRWUGVwlVuKmP8WyB1Q0nbd/AKu0JK20n90152PGMXqQB8qjbFvUtaEOJUm7eIIMNKnrb9kTUcl0MwDHDHWpvTXsKzp11G06ARHjIM1LXDJmn78ntZ6ccQ4lacZPbKmb4bS9sscMS2q0fj2WdMXg2n/DY6YTnVoeMus6ZN36fR9jph+jalPw6xpzwC6FMIR4+pMHWtnTW+7RIGvOGImdqRmVbKm//KikPccMe49qZZd1vSC4xT+hSNmUX+qaJU1PWM/fU3kiFk7nEqbZE1P2EkpaRwx/4wmkR4RkUxGI//hCODzac+ErOkkCf26myPG2IC2jMqa/hxHsw9xxAAAAABA0UETPgAAAAAAABUVYFAKcTqa/BWxTIk8I0W5D5XirhSAykZs/Tbt5a6+PEDrRERElCmDPp9QyLBdQVHAdgWFosfqb9Ne7t+2K9yhAgAAAAAAUBEKKgAAAAAAABWhoAIAAAAAAFARRvkrodB7CgAAAACg5MitLzruUAEAAAAAAKgIBRUAAAAAAICKUFABAAAAAACoCH2oSqjx/xIRbR+j7jwAAAAAAIBowPpv08emfZtGQVVCSdLVnQEAAAAAAPwnt/NzNPkDAAAAAABQEQoqAAAAAAAAFaGgAgAAAAAAUBEKKgAAAAAAABVhUApQA7FYfPbs2YCAgLCwMLFYLBKJKlWq1KpVqz59+hgbG2cL3rdv3/Pnz3MuhMfj6erqWlhYODg4tGrVKucbz507d+vWLTMzs1mzZilmbtq06fPnz0QkFAoXLFggEAhyS/LatWsXLlwgIgMDg/nz56v8ZUHtdu3adf/+/e+GOTk5jR8/nojOnTvn6+tLRLNnzy5fvjxncHh4+F9//UVEixcvtrS0LNR8ociJxWJ3d3ciGj58ePPmzdnM0NDQDRs2EJGLi0v79u1ze+/UqVOlUqnyG729vb29vZVjeDyeQCAwMDCwsbFp2LBhixYt+HyOy5fbtm0LCQmpWrXqtGnTcr7KnDlz5sKFCyKRaM2aNdleSkhIOHTo0KVLl8LDwxMSEszNzStUqNCxY8eBAweam5vn6xcBxeXOnTsnTpy4d+/e58+fZTKZtbV1w4YNhw4d2rhx42yRERERS5YsIaJJkybVqlWLc2kZGRlTpkwhogEDBrRt25YzxsvLy8fHh/7/Rp6b169fHzlyxN/fPyIiQiKRlC5dukaNGl27du3Tp4+ODk4UNYDKuy9lYrH42LFjFy5cePXqVUxMjJ6eXqVKlZydnYcNG2Zvb58tOCkpae7cuVKp1NraesGCBbl9oo+Pj5eXF4/Hmz17tp2dnarfTwNo+d9JXGyMqZk555EM1EIul+/bt2/9+vVJSUnK89+9e3f16tXNmzevWLGiXbt2yi8FBARcvXo178WampouWrSoR48eyjMfPHhw7Ngxa2tr5YLqwoULL168YNNdu3Zt1qxZbsvcvn37vXv3iMjY2BgFlUbz9/c/fvz4d8N69OjBCqqgoKC9e/cS0bt379iRIGfw169fWcyMGTNQUGmctLQ0tvoaN26sOLH4/Pkzm+nj4/PgwYNSpUpxvtfT0zMtLU35jY8ePWJvzI2dnd1ff/3Vs2fPbPP9/PzOnz/v7OycR0F1//79vXv3mpiYZCuozp49+7///S8mJkYxJzIy8vnz576+vkuWLFm3bt3AgQPzSAmKzZs3byZPnnzt2jXlmZ8/f3748KGHh0e/fv22bdtmZGSkeCkuLo5tTj179syjoGIxjo6OuRVUS5cuDQkJYZ91+vTpPDJcsmTJ2rVrpVKpcnqPHz8+fPhwtWrVdu3aVbdu3Xx+WVAXlXdfCgcPHvzzzz+/fv2qPPPjx4/Xr19ftWrV5MmTFy1apHwN2tjY2MbGZunSpURkZWU1ceLEnB/36tWrUaNGicXiMWPGaHc1RVpcUEVFfvY7fzbo/u2lf201MBCpO50C08onUMnlcnd391OnThGRvb39wIEDnZycjI2NIyMj7969e/DgwZiYmAkTJmzYsKFr167Z3mtvbz98+PBsSxOLxU+ePLl+/XpCQsLvv/9uZWWV82pfHnx8fHIrqKKiovJzTwM0QocOHXI7uhDR48ePb9++TUQWFhbZXrp27dq///47duzYos0PSpivX79Onz593759BXqXQCAYM+bbjjsjIyMhIeHFixdPnjz58OHD4MGD161bxyr2H3fz5s0RI0ZIpVI7O7uRI0fWqVPH2Ng4MTHxwYMHu3fv/vLly+jRow0NDbt3714oHwcqCwoK6tWrV1xcnEAgcHFx6d69e8WKFdPS0l69erVz584HDx6cPHnyw4cP58+f19fXL9zPDQkJKVu2bGRkpJ+fX3h4eMWKFTkj161bt3LlSiJq1KjRoEGDqlSpoqenFxUVdf369f3794eGhvbu3dvf379ChQqFmB4UHdV2XwsWLGCXbExMTNzc3Nq0aWNtbR0dHR0SEvLvv/++e/fu77//fvjw4aFDh0xMTBTvcnd3v3z5cmBg4Ny5c1u3bu3o6Ki8TIlEMmzYMLFYXLt27VWrVhXKtysJjuVy+UsLC6r09LQrl3yePXn04V24unNRnYGuujMoAv/88w+rpvr167ds2TKhUMjm16xZs3379m5ubq6uru/evZs9e3aDBg2srKyU32tjYzNq1CjOxT548GD48OFSqXTDhg0HDhzITyZly5b9/PnzhQsXFi5cyNnqz8vLSy6XGxsbZ7uTBprI1dXV1dWV86XQ0FB2R7RChQrLly/PGTB37txOnTrlbO0A2u3EiRN9+/bt27dv/t+io6Ozbt26nPODgoJGjRoVFhb2+++/V6lSJdsdeNUsWrRIKpU6OTldvHhR+eZG9+7dJ02a5Ozs/P79+1mzZnXp0iWPVs1Q1GJjYwcMGBAXF2dmZnbq1Cnl633Nmzd3c3Nbs2bNggUL7t27t2jRohUrVhTiR7Pz6S5duoSGht68eXPnzp3sTkI2iYmJq1evJqKRI0du3rxZ+W58//79hwwZ0rVr1+jo6GXLlnl4eBRielCkCrr72rdvH6umunbt6uHhodxguGPHjlOnTp03b96GDRuuXbs2bdq0Xbt2KV4VCAQ7d+5s2rRpYmLiyJEjAwIC9PT0FK9Onz796dOnRkZG+/fvL9zrBeqV2/m5FraF09XV69K97+Tf5giF2liUaKyIiIjNmzcTUbt27VauXKmophTKli27fv16Ho+XnJy8Y8eO/C+5QYMGgwcPJqI7d+6kpKTk5y1t27YViUSxsbF3797lDGA9Ijp16pT/NEDjxMbGuri4xMfHGxoaHj16NFu3k1KlShkbG4vF4okTJ8rlcnUlCcWPXYyfNm1adHT0jy+tfv36vr6+pUqVkslk8+bN+/FtKTU1NTAwkIhmzJihXE0xlpaWrHdfeHg4a7QM6rJkyZLIyEg+n3/mzBnO1hO///57t27diOiff/7J1tTqR6Smph49epSI2rVr5+LiQkSenp7p6RyPI7137x67aLhw4cKcbZubNWvG7qmePHkyMzOzsNKDIlXQ3VdcXNzvv/9ORK1btz5y5EjO7pcCgWD58uVTp04loiNHjnh5eSm/am9vv379eiJ6+vTpvHnzFPMPHDjg6elJRJs3b65cufKPfCNNoYUFFSMU6hrlGKUA1OjAgQNpaWl8Pn/WrFm59WqrXbt269atq1atamhoWKCFV61alU3k85hkYGDA2p1n60rOvH//Pjg42MHBoXr16gVKAzRIZmamq6treHg4j8fbsWNHzZo1swWUKlVq2bJlROTv71+gCh803aZNm3R1daOjo/Po2lQgZcuWZZ22Hz16dOvWrR9cWnJyskwmIyL2b05t27Zt2rRp165dcwuAYpCYmMhOKPv379+wYcPcwtzd3U1NTdu2bRsREVFYH3327NmEhASRSNS5c+cBAwYIhcLo6GjOblSJiYlsIrdNpVevXi1atOjUqVNCQkJhpQdFqqC7rx07diQnJ/N4vI0bN+ZxQ3vu3LlsiKacjfcGDRrEemxu3bqV9Xh/+fIl+/RRo0YNGDBA5e+iWbS2oCIijW7qMHUvTc2rk7Pm8fPzIyInJycHB4c8wnbs2OHj4zN9+vQCLTw0NJSI+Hx+zm4wuWG9Cy5cuJDzwhursrINcQFaZu7cuaybuLu7e58+fThjRo8ezQrvefPmhYdrcBNiKJCaNWvOnj2biE6dOnXixIlCWeagQYN0dXWJ6MqVKz+4qFKlSpUpU4aI1q5dGx8fnzPA0NDw8uXLx48f/+7YblB0/Pz8JBIJEWXr/ZtNo0aNPn78ePLkyTp16hTWR7PBCXr06CESiSwsLLp06UJEnG32ateuzSYWLFjAeQ+qRYsWFy9ePHToUP6PraBeBd19nTt3johatmyZ930kkUjEmgIFBQW9e/cu26sbN260t7eXy+UTJkyIj4//5ZdfUlJSatasye6Wa5kRW7/9KNPmgkqjxSVTXLK6kyg8Eonk9evXRNSoUaO8I1UYkvHOnTvHjh0joiZNmuQcPD03rVu3NjIyiouLu3PnTraX2B3tnENygdY4evToxo0biahbt27KrRRy2rZtm7GxcXJyMhr+/VRmzJhRr149Ipo+fXqhtMUyMjKqUaMGERXKaDczZswgopCQEEdHx2nTpl26dEksFv/4YqEQBQUFEZFAIGjSpEnekYU7EPG7d+/8/f2JSNFxdNiwYUR069atZ8+eZQuuXLly7969icjT09PJyWnp0qX37t3LyMgoxHyg+OV/9yUWi4ODg4nou1spESlGC8t51mRsbLxz506BQPDx48eWLVs+fPjQ0NBw//79BgYGKn6HEixW/O1HGQoqKA6RkZHsZNTW1la1JXz58uXo/7d///7NmzePHTvW1dU1LS3N0NAw7zPjbPT09NizGrK1+nv9+nVoaGitWrUwqJG2Cg4OnjRpEhGxEYE5R0VXsLOzY4NVBAQE/PPPP8WUIqibjo7Ojh07dHV1Y2JiWOeBH8dGDS6U8mzixIm//fYbj8dLSEjw8PDo06ePra1tq1at5syZ4+/vjxPikuDjx49EZGFhkbOfWz4NGTLEIhdly5bN7V2enp5yudzW1rZNmzZsTpcuXdijHf7999+c8Tt27GCHwvDw8BUrVrRp08bW1rZnz55r1qx58uSJapmDeuV/9xUREcHuTObddIhRDM705s2bnK82a9Zs5syZRMRac2zYsEHRF+MngYIKikNaWhqbMDU1VW0J4eHhf/5/CxcuXL9+/dWrV2UyWd26dY8cOVLQv17W6u/ixYvK5x/s9jduT2mrmJiYQYMGSSQSU1PTo0eP5ueW5i+//MJGZps/fz7ngQS0kqOj4x9//EFEZ86cYffAfxC7WMvZSE8FS5YsuXLliouLi0gkIqKMjIwHDx6sX7++W7du1atXZ2fVhfJBoJrU1FQi+pEnLEul0rTccb5FLpezoW6HDBmiuPElFApZY61Dhw4lJ2dv+mJkZHT27Nk9e/Y4OzuzjhJisfjKlSsLFixo0qRJy5Yt2QgooFnyufuKi4tjE/k5N1M8cVHR9S6bQYMGsQuUQqGwQYMGBc1Z06GgguKg+FtVuV2KsbFxs//Uq1eP9UYgoiFDhvj4+Bw/flyFASRatWplYmKSrdWft7c3j8fD81u0UmZm5ogRI96/f8/n8/fs2ZP/oYe2bSj66fQAACAASURBVNtmYmKSkpIyYcIEnKf+PH777bf69euziS9fvvzg0thwaoXYBqZx48b79u378OGDl5eXu7t78+bN2eipEREREyZMGD9+PLZVNWKlVG6nnvmxdOnSS7nw8fHhfMvVq1ffv39PSu39GPbfxMRENvpfTgMGDDh//vzbt2/3798/fvx41jyViB4+fNixY8e8n1sNJVN+dl+KXUR+RnFUlPGKE7Bsr44aNYotUCqVurm5cQ4sqcW08DlUUAKVLl2ax+PJ5fLY2FjVluDo6MhGTGJiYmKWLFni5eV19OhRBwcH1e4s6+jodOrU6fjx497e3i1atCCip0+fhoeHN27c2MbGRrU8oSSbM2cOG4hi0aJFBRoTv1y5citWrPj1119v3ry5devWX3/9tahShJKEtZxp0aJFbGzslClTDh8+/CNLY6MYKz9jmt0QyHssPnaio6OT68FaX1+/bdu2bPQUsVh89uzZlStXvn79+sCBAy1bthwxYsSP5Awqs7a2JqLY2Fi5XJ53u+LcVK9ePbdhRdjtr5xY5WNgYJDzqXq6urrp6ekeHh65PdGRiCwsLBTPL/r8+fP+/fv//vvvxMTEyZMnt2jR4icZ/Fpr5Gf3xYa3ofw1RY6Kisr2LmV//vnno0ePhELh9OnTV69eHRwcvGDBgsJ9uloJhztUUBx0dHTYY9ofP36cd+Tbt2+9vLy+ezG4VKlS69ata9euXWZm5tKlS48fP65aYmwoP0WrPzYcBW5PaaUjR45s2rSJiPr37//bb78V9O0jR47s0KEDES1cuDAsLKzw84MSqUaNGn/++ScRnTt37siRIyovJz09PSQkhIiUB3NjrfXyfnoeu6/FIpmMjIzIyEjOh8wYGRkNHTo0ICCAnfty9pmB4sGexJCens46/efh6NGjd+/e/fGeb/Hx8azJukQiOZIDu13w+PFj5aeTSSSS9+/f52wHSERly5Z1d3e/ePGiUCjMzMzcvXv3D6YHxe+7uy87Ozs2fmN+BstRxOQckfLs2bOsj/HMmTMXLFjATqI2bdp0+fLlH/sGmgQFFRQT1u31zp07uTX+Zk6cODFt2rQWLVp8t6bi8/lr1qxht5IWLlz46tUrFbJq2rSpubl5fHz87du3icjHx0dHR4c9aRG0yePHj9ltpTp16mzbtk21hWzZskXR8A9P+Pl5TJ8+nfUHmDFjhuIabUH5+fmxXV/Lli0VM9nui41ekBvWw1v5nnmPHj0cHBzYyMicTE1N3dzciEi1vSIUis6dO7MWmBcvXswjjD06vG3btipc5cnm8OHDaWlpOjo6//zzz84cPDw89PT0SKnMlkqlNjY2NWrUyGNw7dq1a7PBLXAVSUPlvfvi8XhsVH1vb+/v9shg97gsLCyyPaX6/fv3EydOJKImTZrMmjWLiLZu3WplZSWXy8eNGxcTE1N436ZEQ0FVQm0cSRtHqjuJQsX+aMVi8c6dO3OLSU5OZi2869evb2Vl9d1lmpiYsIYNqampM2fOVOFR7jo6OiwxX1/fR48effr0qXnz5j/SjRhKoJiYmMGDB0skklKlSh05ckT5Yn+BlCtXbuXKlUQUGBi4ZcuWQs0RSi6BQLBjxw49Pb24uLjJkyersASZTLZ27VoiMjMzUww9TESOjo5E9PXr19wqn9TU1AcPHtB/tzuYatWqEdHFixfzuLUllUrpx0ZEgB9kYmLC2mFu2rQpj6fienh4sPZ7rKHdj9i3bx8RtW/f3tXVdXAOQ4cOZYMtnThxgo2MIhQK2dhunM/8VWDbkpmZ2Q+mB2rx3d3X+PHj2Xihq1evzmM5AQEBFy5cIKJffvlF+SmvrLtUfHy8iYnJ7t27WeNkS0tLduEyMjJywoQJhfyV1G3fpG8/yrS5oGJ97TS0V66ZiMxUPOsroZycnFg/pW3btt28eTNngEwmmzNnDruYwUa1zo9WrVq5uLgQ0ZMnT1Rrk8DuTV+6dImNn47x/bRMRkaGq6vr+/fvhULhgQMH2LPeVebm5taxY0ciOnnyZCElCBqgevXqc+fOJSJvb++877HnJJPJ/vjjD3YPfNasWewuAdO+fXs2FNsff/zBec9z+/btbFQD5TJs6NChRBQTE/Pbb79xHuDi4uL27NlDRK1bty5QqlC43N3deTxeTEzM2LFj2UN+swkKCmLXBBs1asSqL5UFBwezFvVDhgzJLYbdt5RIJIoOyWxbunDhgnIXZWX3798PCAggIsUg7KBx8t59NWzYcPz48US0bt263DaDZ8+ejRw5Ui6XW1lZsYfgKSxYsODu3bv037N9FfO7dOkyZswYIvLx8dmxY0ehfiE1szD69qNMmwuqVEkKEUkkeTVPh+K0bNkyU1NTiUQyevToVatWRUREKF4KDg52c3NjXZj693cp0HnAH3/8wRoBb9iwgQ1wVCCNGzcuXbp0bGzswYMH9fT02OkyaI3Fixezx1yOGzfO0NAwKHcPHz7MzwK3bt1qYmJSxFlDiTN16tSGDRvmESCXy5U3p9u3b58/f37t2rVNmjTZvHkzEbVp0ybbpSJbW1t2+dbX17dXr143btxgHWnkcnloaOisWbPmzJlDRE5OTsodO5s0acLuZnh6erZq1er06dOKtjqJiYlHjhxp3br1+/fvRSJRtlMfKGbNmjVj9wS8vb3bt29/7tw5RTOKpKSkjRs3dunSJSUlxdDQcPv27T/4WWw4CmNjY9YxmFObNm3YFaVdu3axOePGjatUqRIRTZgwwc3NLSAgQNGV6+PHj3///XfPnj0zMzOrV68+YMCAH8wQ1Cjv3deSJUvq1q0rl8snTJgwevRo5QdAf/36de3ate3atYuMjNTT09u3b5/y4e/ChQsbN24komHDhuXcQlasWMEGDPvzzz9fvHhRyF+p5NHOUf5u+PuFvniSnCwmIs+dW2s51W/drgtrzQxqVK5cub17944bN+7Lly8eHh4eHh6WlpaWlqWior4oHobQq1evpUuXFWixZmZmc+bMmTFjhkQimTNnTm6XWHLD5/O7dOni6emZlpbWpUsXlR/CCCUTazFFRFu2bMm7nZ5AIMjPGMdly5ZdvXq19jVjgLyxljPNmjXL7Q5Venq6s7Nzbm/v27fvP//8k3OwvgULFjx//vzqf/h8vpmZWXJysuJTHBwcDh8+rHimEOPh4ZGYmHj58uWgoKBhw4bRfy2yEhIS2D0rkUjk6emJYdnUbtmyZRKJxMPD4/Hjx4MHD9bX17e3t5fL5W/evGGli4WFxZEjR1gzTpWlpaWxIQf69OmTx7j8fD5/+PDhy5cvf/nypb+/f+vWrU1MTE6fPt2rV6+3b98eP378+PHjfD7fwsIiNTVVUaWXL1/+5MmTeYwzCSVf3rsvkUh06dKlcePGnTp16vDhw4cPH7aysrKyskpKSvrw4QO7eV6mTJk9e/YodwH9/Pnz2LFj5XK5g4PDunXrOBe7a9eutm3bSiQSNze369evK9+f1z7aeYeqZesOo8dP+3vrvr+37pvmvqBD554aV03NOkizDqo7iSJQq1YtX1/fsWPHsi5S0dHRL16Esmqqdu3amzZtWrdunQo77t69e7NTmcDAQBVG/FNc/cX4fpAfrq6unTt3VncWUNyqVas2b968fAYLBAJTU1MnJ6exY8devnx5//79nBdr2GNVV69eXatWLSKSyWSxsbHspMfS0nL69Om3bt3K2U7VwMDg7NmzO3fubN68OevPEB8fHx8fL5fLjY2NBw8efP/+fdY7FNSLz+evX7/+zJkzbdq0EQgEqampoaGhL1++zMjIMDExGTdu3IMHD3IbGz3/zp07xw6jebT3Y1xdXdkY7h4eHmyOg4PD/fv3582bx4o6mUwWHR3NqilbW9vff//93r17yk25QEPlvftil2A8PT2bNWvG4/G+fPny5MmTd+/eyWSyihUrzp8/PygoSLmayszMHDVqVExMjFAo3L17d25XouvVq8dusz958iT/O88Sbvy/336U8diQrPkhTud4khcUpkyJPCNlrOe3Af735bcnkeaRy+UfPnz49OmTRCIxMjJycHBQfjwLFKIRW79Ne7mrLw/QOhEREZwPJAHVREZGfvr0KTo6WigUlitXrnLlytluTHFKTEx8+/ZtTEyMTCaztrauWrUq52M3NYi2bldisTg0NDQmJobP51tbWzs6Oip37i8J2BYYGxurp6dXtmxZBwcH1Z6gVTJp63ZV6OLj458/f56QkGBgYFCpUiU7Ozt1Z1Sy9FAavMPL/dt2hXu4oB48Hq98+fI/OEIAAIDWsLGxUeGR4iYmJjkfCwMlkJGRERvAusRSbQsELWNmZtasWTN1Z6F5tLPJHwAAAAAAQDFAQQUAAAAAAKAiFFQAAAAAAAAqQkEFAAAAAACgIhRUAAAAAAAAKsIofyXUqqHqzgAAAAAAAP6zfQz3fBRUJVQZM3VnAAAAAAAA/7G14J6PJn8AAAAAAAAqQkEFAAAAAACgIjT5K6EWHCciWtRf3XkAAAAAAADR9H3fpv8e8W0aBVUJFf5F3RkAAAAAAMB/XkVyz0dBBaAlLIy453u5F28eAAAAAD8T9KECAAAAAABQEQoqAAAAAAAAFaGgAgAAAAAAUBH6UAFooR6r83oVvaoAAAAACgvuUAEAAAAAAKgId6hKKDyBCgAAAACg5FB+9pQyFFQlVEUrdWcAAAAAAAD/qWLDPb8gBZU0rlBSgVzJ5YrJEVvVmAdoJPSMAgAAACh+BSio5DJZ0eUBAGoRERGh7hRAg2H7gaKA7QqKArYrKApsuypAQcXnYwSLoiWXy+VKN6kAikGZMmXUnQJoqoiICGw/UOiwXUFRwHYFheLPw9+mlw/+tl0VoKAyMjYr9LRAWVpaalpqirqzAAAAAACA7ILfc8/HoBQlGnrFAAAAAACUZGjFBwAAAAAAoCLcoQLQQri3CQAAAFA8cIcKAAAAAABARSioAAAAAAAAVISCCgAAAAAAQEXoQ1XizO+Tqq+vr+4sQKvg+RsAAAAAP2j5YO75KKhKnJq2mYaG6k4CAAAAAACU1CnPPR9N/gAAAAAAAFSEggoAAAAAAEBFaPJX4qzx1RcIsqbn9lVrKgAAAAAAQERES099m1Y+S0dBVeLceyP4fhAAAAAAABSj26+456PJHwAAAAAAgIpQUAEAAAAAAKgIBRUAAAAAAICKUFABAAAAAACoCINSgOoiIyOPHDkSHBwsk8kqVqzYv39/R0fHAi0hJCTkxIkT4eHhBgYGjo6OgwYNsra25oyUSCQnTpwIDAxMSkoqU6ZM586d27Zty+PxOIPDw8NPnToVGhqamppavnz5nj17Nm7cmDPy0aNHZ86cCQ8P19fXr169uouLi52dXW4JnD179s6dO1+/ftXX169atWrv3r2rVq1aoO8LJc2xY8eOHz++atWqChUqcAaEh4efOHHi+fPnGRkZdnZ2Xbt2bdGiRfHmCCWCXC6/evXqlStXPn36RETlypXr1KmTs7Nz/peQkpJy4sSJO3fuJCYm2tjYtGvXrkOHDjo63zkKP336dPHixW5ubt26dfuhLwDaJf9HT9Bucrn80qVLly5dioyMNDc3b9asWZ8+fQwMDPL59idPnjx58oTzJQsLi06dOinPKdBO7Gc7evKSkpLyG8oXFmkqhSshISE+Ps7U1MzMzEzdueRXWlpqWmrKWM8yijle7mpM5zvOnTs3ZswYsVismMPj8aZMmbJs2bLc6pxsFi5cuGbNGrlcrphjZGS0efPmAQMGZIsMCwvr3bv327dvlWe2a9fO09Mz5/pdvHjx2rVrMzIylGcOHz58y5Ytyn/2GRkZU6ZM2bt3r3KYUCicPXv27Nmzsy3z6tWro0ePjoqKUp7J4/HGjRu3evXq754SqV1ERESZMmW+H/eTCQsLa9myZVJSUmBgYJ06dXIGrFmzZvHixZmZmcoze/TosXPnTiMjo+JKs+T6ebart2/furq6BgUFZZvfqlWrvXv3WllZfXcJgYGBrq6uERERyjNr1669b9++PK7LpKSkdOzY8dGjR6tWrfrf//6nWvIa5+fZrlSW/6MnKGjldiWRSAYOHHjlyhXlmZUqVTpw4ADnQS2nMWPGHDp0iPOlevXq3bhxQ/HfAu3EtPjo2WP1t2kv92/blRYWVFFRUXt373z5MpT9t1IlB9cRI+3Kl1dvVvnBCqqXMeb6+vpsTpPK6s0oV/fu3evSpUtqamq3bt1Gjx4tEonOnDmzfft2uVw+b968nAVJTlu2bHF3dxcIBJMmTerevXtSUtL27dv9/PwEAoGXl1erVq0UkXFxcc7OzuHh4Y6OjjNnzixXrty9e/dWrlyZmJjYpk0bLy8v5fpt3rx569at4/F4o0eP7tOnT0ZGxokTJzw9PYlo6tSpy5cvV0ROnTr133//FQgE48aN6969e2Zm5unTp/fs2SOXy5cvXz516lRF5MOHDzt06MBudk2bNs3R0fHLly/Hjx8/e/YsEY0bN+7vv/8ulN9q0dHKA8kPev36ddeuXdndBs6Cavfu3ewUtkuXLr/88ouJicmlS5c2btwolUq7det27NgxNSRdwvwk25VYLG7atGl4eLihoeGUKVOaNGmSmZnp7++/bds2qVTq5OR07do1XV3dPJbw+vXr5s2bi8XiqlWrzpw5s2LFii9fvly1atW7d+/s7Oxu3bplYWGR810pKSkDBgy4du0aEaGgAoX8Hz1BmVZuV4MHDz537py5ufkff/xRr169d+/erV69+uXLlzY2NoGBgfm51tO4ceOnT5/a2tqamJhke6lmzZqKi84F2olp99HzTti36SaVlbarpHwTJ6eW/J+IiC8Txo+fNGnS+r/XL1++fISr6+BBg9xGuL0IDVN7bt/9iYmN//z5s1gslpd47du3F4lEQ4cOVZ7p4eEhEoksLCw+fvyY99vj4uKsra1FItHWrVsVM2UymZubm0gkatSokUwmU8xfsGCBSCRydHRMSEhQzHz06JGFhYVIJDp16pTyTGNjY5FI5OHhofxxixcvFolEpqamX79+ZXOePXsmEolEItE///yTM9La2joxMVExs1u3biKRqG7duklJScrBCxcuFIlEhoaGL168yPv7qt3nz5/VnULJ4u3tXbZsWdF/Hj9+nC0gMzOzYsWKIpFo2LBhyvMPHTrE3nLjxo1izLeE+km2qxUrVohEInNz86dPnyrP9/PzMzQ0FIlE//77b95LGD58ONuJKe9DoqKi7OzsRCLR0qVLc74lNDS0QYMGik1006ZNhfJdNMJPsl2ppkBHT1CmfdvV5cuXRSKRiYnJo0ePFDPj4+Pr1q0rEol+++237y4hLS3N1NRUJBLdvn0778j878R+tqOnYrvStkEpfH29GzRsvGLlX2PGTZgy9bd5CxaZm1ukpaUeO8J9QxNUcPfu3cDAQCJatGiR8vzRo0c7OjqmpqayO0J52LlzZ1JSkp2d3bhx4xQzeTzeypUrdXR0nj59euvWLTYzNTV1+/btRDRz5kzlyydOTk5ubm5E5OHhoZi5efPmzMzMdu3ajRkzRvnjpk2bpqurK5VKAwIC2Bx2gaRMmTLKCRDR2LFjiSgpKen+/ftsTkxMjL+/PxHNmzcv233qOXPmGBoayuXyCxcu5P19oeQIDw93dXUdMGBAfHy8k5NTbmFv3rxhLTwnTJigPH/w4MGlSpUiouvXrxd1qlBCnDx5kojc3Nyy9RFt3759+/bticjX1zePt0skEi8vLyKaMWOG8j7Eysqqd+/eRHT16lXl+KSkpAULFjRr1uz58+flypXjvHkFP638Hz1B623YsIGIXFxclI9lpqam8+fPJ6L9+/dLJJK8l/Ds2TOpVCoQCPJuH1igndhPe/TUtoIqPj5+yNBhAoGA/bdMmbKDhwwlohcvnsuVWhvDjzh//jwRVatWrXLl/9ckkcfjde/enYjOnTuXnyV07txZsaYYGxubhg0bEhH70yWi27dvJyYmElHXrl2zLaRHjx5EFBAQkJCQQERSqVTxB58t0tjYOCwsLC4urm/fvmyOq6vr7t27V65cma27l6JHVkpKCpuIjo5u0qSJnZ1d/fr1sy1WR0enYsWKRPTly5e8vy+UHHPnzj158qSOjo67u/vRo0e/G5+zKRcr7KVSaZHkByWPtbV15cqVmzRpkvMl1nPg69evebxdIBCcOnVq5cqVOUeVMDc3J6W9DXPgwIE1a9akpqb26tXrxo0blpaWP/oFQIvk/+gJ2k0ikbDKJOeOpVOnTkKhUCwWZ7tYk1NwcDARVa9ePe9BLAq6E2N+tqNnSe9MX1Au/bP3yHSsWYuIBAJBPkdKULvNfnqKMQ5mdFdrKrkICQkhIs6r+7Vr1yaiJ0+eZGRk5DFUQ95LuH379qNHj9h/2V+7jY1NzvGL2GdlZmYGBwc7Ozu/evUqMTFRR0enWbNmLEAmk0kkEkNDQyJi10UUKlasyGqhbNiVZh0dnbp167I51apVu3z5Mue3SE1NZeNk2NjY5PZNoaTR0dHp16/fvHnzqlatmm2UEWX29valSpWKiYk5e/as8hCRISEhbKU3aNCgGLKFkiCPK0TPnz+n7+0BdHV127Rp06ZNm2zzMzMz2c3tRo0aZXupYcOG8+fPZ7e/AJTl/+gJ2i00NDQ9PZ2IFKcrCoaGhpUqVQoNDX306FHeo4OyU6x69eoR0atXr0JDQ3V1dWvVqlW2bFnlsALtxLT+6LnW+9u08lm6tt2hKlUq+8U8XV1dHo9X3t5eLfmoICBU5+pTYj8l0/v374moPNc4H+XKlSOijIyMbOPAKIuPj2dDodhzrRS2BPYRRPThw4fcIkuXLq2np6eIefr0KRHZ2dnp6eldvny5e/fuFhYWVlZW9vb2v//+e2xsbN5fKi0tbc+ePZMmTSKiSZMm2dra5h1PRP/++69YLObxeJ07d/5uMJQQ27Zt8/T0/O5490KhcPHixUS0adOmtWvXRkdHp6am+vn5DR48WC6XOzs757xlCj+bx48fsxEjVNgDvHjxYvDgwU+ePLGwsJg+fbrySyNGjPD390c1BTkV6OgJ2k2xojmf9ZLPjYEVVKmpqS1atKhbt+6gQYP69u1bpUqVvn37hoeH5/3e3HZiWn/0VJyiZztL17aCKqcP79/L5fKWLTHuTaGJi4sjIlNT05wvGRsbs4n4+Pjc3q6obXIOKUNErHku+whFMGckEbG7TyyYtbqxtLRcu3Ztr169rl27xufz+Xx+dHT0tm3bnJ2ds426rvDy5cv69evb2tr++uuvEolk/vz5y5Ytyy15BfZwGCIaMGBAlSpVvhsPJYRIJMpn5MiRIw8ePGhnZzd//nx7e3tLS8vevXt//Phx8uTJJ06c4PO1f+cJeRCLxaNHj5bL5fb29sOGDcv/G93d3R0cHBo0aODj41OvXr0LFy5kewZa/jdR+NkU6OgJ2o2taH19fXZlORt2MpbHmRgRyeVydsPz+PHjISEhTZo06dq1q4ODAxFdvHixVatWL1684Hzjd3diP+fRUzu/lbLAwJtly9o2b95S3YloD3aXWTG2uzLFTBbDSdF8lrPNLpupiGETubXuVQ5mT8QKDQ1dsGBB06ZNb9y4ERsb+/Xr1+3btxsZGb19+3bYsGEymSznQl68ePHq1SvWxU4qlZ47dy7bIx1yev36de/evZOTk+3t7detW5d3MGio2NhYb2/vz58/E5GhoSFrKZ6RkREUFJTbYQZ+EmxA8+fPn+vq6u7Zs4fzhCY3/v7+CQkJrAl6WFjYjh07kpOTiyxT0CoFOnqCdsvjTEwxP48zMSIKDw9nfdRbtmz55MmTK1euHD9+PDg4+ODBg0ZGRrGxscOHD+c8a/ruTuznPHpqeUEVHR196+bNkb+M5gu0/JsWJ6FQSETZntfGKP72svWXVaboW8W5BDZT8XYWzBmpmM+udrCjSGJioqOjo5eXF2sTrK+vP3z4cDbq4KNHjzh767Zt2zYmJiYmJubBgwddunR5+PChi4uLj49Pbvk/efKkU6dOERERVlZWp0+fZnsK0DKJiYkdOnQ4cOCAra2tj49PVFTUhw8fQkJCevbsefPmzW7dut25c0fdOYJ6JCQk9OrV6/r16zo6Ojt37lTuJJAfPj4+0dHRX7582bZtGxF5eHj06tUrt10cgLICHT1Bu7EzMc6CRzE/742hdOnSR48eXbNmzYkTJ5Q7cfTu3Zs9XfP58+dsEJRs8t6J/bRHT20uM+Ry+b49u/q5uFSq5KDuXLQKa2iXlpaW86XU1FQ2kUerFfZ25eCcS1BcfmPBnJGK+eyzFIudOXNmtqt3nTp1Yl14L168mHMhxsbGbCya6tWrHz16tGXLlhkZGX/88Qfnfury5csdO3aMjIy0t7e/dOnSd7vigIbavHlzaGioiYnJ+fPnW7duzS7FVapU6dChQ506dRKLxb/99pu6cwQ1ePv2bdu2bQMDA/X19Q8ePNivX7+CLoENkCMSiUaMGHHw4EEiun37dn4GnAQo0NETtFv+z45yY2xs3L1794kTJ2Z7JAwRDR48mA16zDnEed47sZ/26KnNBdXpUyfL2ZVv266DuhPRNmwY3+jo6JwvKYYPLl26dG5vNzc3Z1dN8liC4u15fJZUKmV3q1mwYsRzdm8qGzbz3bt3uX4rIiISCATTpk0jorCwsJw9Mnft2tWvX7/ExMS6deteuXIl26jxoE28vb2JaOjQodmGJ+HxeHPmzCGiR48ehYWFcb8ZtNS9e/dat24dGhpaqlQpb29v9pSIH9GuXTu2a7p06VJhJAharkBHT9Bu7OwoPT2djVOSzQ9uDHw+n3UOz2MsXCbnTuynPXpqbUF1I+B6XFzsgIGD1J2IFqpevTrlUpywIWXMzc3zaAinp6fHhizPYwmKWqVGjRq5RX748IHdRGLBiptFGRkZOYNZSwnlrg5RUVGcQ/8p8TEHXwAAIABJREFUhlNnzX8VFi1aNHny5IyMjB49ely8eBFDpWs3th2y7rnZsG2S8lGfgzbx9vbu2rVrdHR01apVr1271rRp0/y/VyKRvH79mvMltsPJtrcB4FSgoydoN3YmRnluDJyHsGxye/gvO5VS3OPK/07spz16amdB9eD+vZCQ4JGjRis/e4rzPLsE+l+HtBndif2UTOwZApytYG/fvk1E3+1UwB6Sy7kENlOxBBYZHx//8uVLzkgTE5Nq1aoRUZ06dVjLPc6ncLAdgWIgmpYtW1aqVGnVqlU5IxUDvis/umrRokWrV68mookTJx46dEjR7gK0FRtEKzIyMudLikG0MBrbz+PChQvDhw+XSCTNmze/cuVKpUqV8v9eb2/v0qVL161bl3P4NbbDyfagPIDc5P/oCdqtTJkyZcqUof/Ou5R9/Pjx06dP9L2NYc6cORYWFuyRntmkpaWFhoYSkaOjIxVwJ6b1R0/FKXq2s3QtLKgePLh/82bA2HETlEdmjIuL3btnlxqzyj/nahltaxL7KZl69uwpEAiioqLYA90UEhMTz5w5Q0QDBw7Mewl9+vQhIl9f32ztFgICAsLDw3V0dPr27cvmVK5cuWbNmkS0d+/ebAvZt28fEfXt25fdfTIyMmJPg9m+fTsbsk/h3bt3AQEBLHM2hz1R/ujRozkf780+yMbGRnEp5dixY6ya+v3339esWaOtI36CsubNmxPRqVOnco6SdOzYMSIyMDDgfLYmaJ+wsLARI0akp6e3adPm3LlzBR2HpkGDBnw+XyaTsdFxlL148eLu3btE1K5du0JLF7Ra/o+eoPXYxpBzx8LOjipXrszZA0KhZs2aaWlpERER7ARJ2Z49e1JSUgQCQa9evaiAOzGtP3oqTtGznaVr26lh4K2b27dtSUhIWPPXypUrlq5csXTF8qULF8yd7f57hQoV1Z2dlrC0tGTPXZk8ebLiFnBKSsovv/ySkJBgb2/fv39/RXB0dPSkSZMmTZqkPCBEt27dqlWrlpycPHLkSDbcORG9f/9+4sSJRNS/f3/lpxayB8Zt2bJFeeS9lStXXr9+nc/nK/dunDVrlkAguHv3rru7u+KGZHR0tKura0ZGRv369Z2dndnMSZMmCYXCL1++TJo0STHcp0wmW716NfuD//PPP9ntzYSEhKlTpxJRzZo1e/XqFcSFPVkYtMmUKVMEAsGbN2/Gjx+vXHX7+vouXbqUiMaPH6/R19gg/yZPniwWi42MjKZPn/7s2bOce4Dnz58rgm/dusX2eIpOmDY2NgMGDCCi5cuXK5+4vH79evDgwZmZmQV9khX8zAp09ATtNnHiRD09vfv378+fP19xHfnKlStr1qwhot9++035+u/evXsnTZrEzmeYPn36lC1blogmTJig3JzPx8eHdXYaO3Yse2pwgXZiP+3Rk8fZm407lC8s0lR+XNCD+9u2bs52d4IRCARr1q43zuX5sCVEWlpqWmqKiYlJyW9RFhMT06ZNmzdv3hgYGHTr1s3IyMjPz+/Tp08ikcjX15fd/2Fev35dp04dIlq8ePGMGTMU82/fvt2jRw+JRGJjY9OpUyeJROLr6ysWi6tWrXr58mULCwvljxs8ePC5c+d4PF6bNm0qVap0//79x48fE9G6devGjx+vHLl9+/YZM2bI5XI7O7vWrVtLpdLz588nJCRYWlpevHiRNQ5kdu7cOXXqVLlcbmNj06pVK5FIdOPGDdZRcsyYMRs2bGBh69evZ3uWPIwePXrjxo2q/SaLR0REBGsbAMqioqJY263AwEC2lSrz8PCYPn26XC43Nzfv0KGDmZlZcHAwa1TTpk2bU6dOsSamP7OfYbt68OBBq1bfeS581apVHz58yKb37Nnz66+/EtHVq1cV7W3i4uI6duzI6q5WrVpVqVIlIiLCz88vPT3d0tLSx8eH3YfnVK9evZcvX65atep///tf4XylEu9n2K5+RIGOnqCgldvVpk2bZs+eTUS1atVq0qTJu3fvrly5IpPJXFxc9u7dq9zt5Zdffjly5Iienp5y7/EbN2706dNHIpHo6+u3bdvW1tb2yZMnrA1h27Ztjx8/rnjOVYF2Yj/V0fPbdpWUb+LkVPwU6U9MbPznz583+KRvuShnPyXZ58+fhwwZYmRkJPpPw4YNb926lS0sLCyMvbpmzZpsL929e7dFixaKtxsaGvbr1+/jx485PystLW3u3LmWlpaKYHt7+127dnEmdvHixUaNGikijYyMBgwY8O7du5yR58+fr1+/vkiJo6Ojp6encsyQIUNE3zN58uQC/OLU4fPnz+pOoSSKjIxka/Dx48ecAZcvX1beREUika2t7fLly9PT04s51ZLpZ9iutm7d+t09QN26dRXxu3fvZjPv3LmjvJzExMQpU6aYm5sr3mViYuLm5sa5x1NWt25dkUi0adOmIvl6JdLPsF39oPwfPUFBW7erAwcOODg4KDYGCwuLmTNnpqamZgsbNWqUSCQyNzfPNv/p06fdu3dX3qGVK1du+fLlaWlp2SILtBPT4qOn4hSdnaUrtiutukOl6dgdqrGe366geLmrMZ18+fr16/Pnz1NTUytUqKDaQ5lev34dHh7O5/MdHR3zHjovJSUlODg4Pj7eysqqdu3a7Kl2uXnz5s3bt291dXWrVq1qZWWVR2RYWJhiyArlW1jaRCuvzBWbT58+vXr1Kj093cbGpmbNmnhupgK2q4JKTk5+9OhRXFycmZmZk5OTsbGxujMqibBd5VP+j55AWr1dyWSykJCQyMhIQ0PDunXr5nyu1HdFR0c/e/YsNTXV2tq6Zs2aikdI51SgnZhWHj17rP427eX+bbtCQVWCaGJBBRpBiw8koEbYrqAoYLuCooDtCgpFbgWVtg1KAQAAAAAAUGxQUAEAAAAAAKgIBRUAAAAAAICKUFABAAAAAACoCAUVAAAAAACAinIdGBHUZUzrdG165BkAAAAAgBaY1JF7PgqqEqdjLamhIQoqAAAAAIASpFs97vlo8gcAAAAAAKAiFFQAAAAAAAAqQpO/EudAoK5QmDU9qrVaUwEAAAAAACIi2u3/bVr5LB0FVYlzNkiomEZBBQAAAABQEpy4821a+SwdTf4AAAAAAABUhIIKAAAAAABARSioAAAAAAAAVISCCgAAAAAAQEUoqAAAAAAAAFSEggoAAAAAAEBFGDa9xBnWLF1XV1fdWQAAAAAAwDe5PdAIBVWJ06u+1NAQBRUAAAAAQAni0oR7fgEKKnFSfOHkArmQy+XqTgEAAAAAAAqAl5SUlM/Q/EfCj5DL5TweT91ZAAAAAADA9xXgDhWfjxEsipZcLpfL5ZdfWSr6UA1qpt6MQEtERESUKVNG3VmAtsF2BUUB2xUUBWxXUCiOBH6bHtTs23ZVgILKyNis0NMCZWlpqWmpKUfufOtAhYIKAAAAAKAk8Az4Nq18lo6bTgAAAAAAACpCQQUAAAAAAKAiFFQAAAAAAAAqQkEFAAAAAACgIhRUAAAAAAAAKkJBBQAAAAAAoKICDJsOxaNfQ6lQKFR3FgAAAAAA8E1uDzRCQVXiDGqSbmiIggoAAAAAoARxdeaejyZ/AAAAAAAAKkJBBQAAAAAAoCI0+StxfIOFurpZ070aqDUVAAAAAAAgIqKzD75NK5+lo6AqcfYE6CqmUVABAAAAAJQEOy5/m1Y+S0eTPwAAAAAAABWhoAIAAAAAAFARCioAAAAAAAAVoaACAAAAAABQEQalANVFRkYeOXIkODhYJpNVrFixf//+jo6OBVpCSEjIiRMnwsPDDQwMHB0dBw0aZG1tzRkZFRV18uTJkJCQxMREU1NTJycnFxeXUqVKKSfj5+eX98dZWlp26dJFec6jR4/OnDkTHh6ur69fvXp1FxcXOzu776Z97Nix48ePr1q1qkKFCt//kqAh8r81ws9DLpcfOHDgu2FDhgwRCATfXdSlS5cuXboUGRlpbm7erFmzPn36GBgYFMVngdbD/gqY7+5YCuTr16+LFi3S19dfs2YNZ0B4ePipU6dCQ0NTU1PLly/fs2fPxo0bc0Y+e/bs1KlTYWFhIpGoWrVqQ4YMKV26tGpZaQReUlJSfkP5wiJNpXBJJJLo6K8mxiamZmbqziW/0tJS01JTxnqWUczxcldjOt9x7ty5MWPGiMVixRwejzdlypRly5bxeLz8LOH/2LvvuCiO/3/gc3C0pQiCFBURYkQxUdEYJbHFKBpAYwExUT8W0CgJomKMWLAmH0PQxBblp8aeqGALKIqADcUSFcWKKGKkiUg54A4O7n5/TD7Lfq9xnBqO4/V88McyN7c7p3PDzM7se5YtWxYZGSmVStkUMzOzjRs3+vn5yeRcv3790qVLq6uruYkMw6xZs+Y///kP/fXMmTM+Pj6qr9irV6+zZ8/S45qamlmzZu3atYubwcDAYMGCBQsWLFBxkszMzL59+woEgtTU1K5du6q+opbIy8tzcHCoP18zpn5tBFZzqFc1NTUtWrSoN1tRUZGxsbGKDEKhcOzYscnJydxEFxeXffv2sc3Im7pWU9cc6tVrQnulAZ2sV+o0LA3i6+sbHx9vYWGRl5cn/+qKFSvWrFlTU1PDTZwwYcKmTZv4/LoZmpqamgULFmzZsoVbRU1MTBYuXDh37lwNSqVVfCLqjuPm19UrHZyhKi8v37dn17VrV+mvnd3cpk+faW5h0bilUt9nXcUGBto+dr127drkyZNFIpGXl1dAQADDMMeOHYuKilq3bp2FhYXqAQm1adOmn376SV9fPygoyNvbWyAQREVFJSYmBgQE2NnZ9e/fn80ZFRUVFhZGCOnbt++kSZMcHR2fPn26cePGO3fuzJw508zMbPTo0YQQU1PTzp07K7yWSCTKysoihHTs2JFNDA0N3bVrl76+/vTp0729vWtra48ePbpz586VK1eamJiEhIQoPNXjx4+9vLzUvw0BTYL6tRGaGx6Pp6xhIYQ8ePBAKpU6OzvX22hPmTIlOTnZysoqLCzM3d09Ozs7IiIiIyNj1KhRqamptra2b/BaoNvQXgFLnYZFfVu3bo2Pj1f26pIlS9auXcvj8QIDA0eOHFlTU3Po0KE9e/bs3bvX2tr6hx9+YHOGhITs3LmTEOLl5TV58mRLS8sLFy78/PPPS5YsKS0tXb58uaYfVyso3dBIoLbyCpH2/5SUli9ZvGTduvWxsce3b/9t4oQJ4/z9ly1b3ugFU+en6FVJbm5ueXm5VOt9+umnDMN8+eWX3MStW7cyDNOyZcvnz5+rfntxcbGdnR3DML/++iubKJFIJk2axDBMr169JBIJTSwvL7e3t2cYZurUqWyiVCoVi8VDhw5lGKZDhw61tbWqLzdhwgSGYTw8PCoqKmjKvXv3GIZhGIbeQWGtWLGCYRg7O7uysjL58xw/frx169bM/9y6dUv1dbVHbm5uYxdBe6lfG0FGM69XW7ZsYRjG3t4+IyNDdc6kpCSGYSwsLNLS0tjEkpKS7t27Mwwzd+7cN3gtHdDM65VqaK80pnv16vUbFq6MjAwbGxvavbG3t5d5NS0tzdzcnGGYrVu3ctNpr6lFixaFhYU0JSUlhZ4kLCyMm/Pq1auWlpZmZmbc0uoAtl7pWlCKc2fPeHn7BARO/2TQp/7jvpw9dx6Px3tw/15R0cvGLpruuHr1ampqKiFE5jZDQECAm5ubSCTas2eP6jNs375dIBA4OjpOnz6dTeTxeKtXr+bz+Xfv3r106RJNTExMLCsrI4SsXr2au5KQz+evWLGCEJKbm3vr1i0V19q0adPhw4fNzMz27NnDMAxNjI6OJoQ4ODhwC0AImTZtGiFEIBD89ddf3PSsrKyJEyf6+fmVlJR069ZN9aeDpkX92gjAun79Op2KX79+/bvvvqs687p16wghY8aM4bYeLVq0CA8PJ4Ts3btXKBS+qWuBbkN7BazXbFi4xGLxlClTKisrvb29FWbYuHFjbW3toEGDAgMDuemzZ882NDQUi8UXLlygKbt37yaEODs7r1y5kpuzV69ekyZNkkgkP/30k7qfsEnRtQGVu3uP97vWVSxX105t2rYlhEgkUuVvgoY5efIkIcTV1bVDhw7cdB6PR7+KsbGx6pxh6NChMo9W29vbf/DBB4SQuLg4miIWi93d3d3d3eWfZWTX7xUWFiq7UGZm5uLFiwkhK1eufOedd9j0iRMn7tixQ2aQRgix/N8Td5WVldz0xYsXHz58mM/nz58//+DBg6o/HTQt6tdGAKq6ujowMLC6unr06NH1PrUiFArPnz9PCPHy8pJ5ydPT08DAoLy8/MyZM2/kWqDz0F4B9ZoNi4xVq1bdvHnT19dXYSMjFotpvQoNDZV5ydzcPDMzs7i4eNSoUTSF3o8ePny4fOycTz/9lBCSmJgolepgn1zXBlQtOWHfKCMjY2dnlyYUWuTMff7pdEJ/tFN6ejohROFEzfvvv08IuXPnjswziw09Q1paGv3V19c3JSUlJSVFPuf9+/fpgb29vbILhYaGVldX9+zZk049sZydnceOHevr6yuTn64e5vP53bt356bz+fzRo0dfu3Zt6dKleIBBx6hfGwGoDRs2ZGRkmJubq3Or9eHDhzSgjkyrQggxNTV1cXEhKutYg64FOg/tFVCv2bBwXbx4ce3ata1bt6ZTXvIePXpUVlbG5/M9PDxoikQiqaiooMfW1taGhoZs5uLiYkJI69at5c9DIzMLBIKnT5+qUzDtxHbRZXrpOhiUgqu8vLzwxYt58+uPkaA9tiQbscdD3m/Egij17NkzQki7du3kX2rbti0hpKamJi8vT1n88ZKSEhrUwcnJSdkZ6CVU++WXXwghrVu3pn9F5MXFxdFA6hEREfUGHqyqqvrjjz9o9IugoKA2bdpwX928eTO7XBB0yZuqjdB85Obm/vjjj4SQ0NBQFXdzWGz9Udgktm3b9uHDh8rqWEOvBboN7RWwXqdh4RIIBIGBgVKpNCoqylJJWOy7d+/SCxkZGSUlJa1du/bixYtisdjGxsbPz2/hwoUtW7ZkM5ubmxcUFJSWlsqf5+XLf56+ycvLc3Z2rrds2mkdJ2wHt5euazNUXCKRaOv/2zLG10/hQBk0Rm8/KAzva25uTg9KSkqUvf3Vq1f0wEJR6EUzMzP2Eirs3r2bTkCHhYUpGyzRmDMDBw7s06ePilNlZGT06NGjTZs2X3/9tVAoDA8P//7772XyYDSlq95IbYRmZd26dRUVFZaWljNnzlQnP60/xsbGRkZG8q/SNlNZg9nQa4FuQ3sFrNdpWLhmz5797NmzGTNmDBo0SFke+mCFjY3NmjVrRowYcfbsWT09PT09vZcvX27evLlfv37cGaf33nuP/G+9j4zTp0/TA+6OOzpDNwdUpSUl8SeOL1kUdvdO+s4d248cPtTYJdIpdJZZ4UYobKLMnlFcYrGYHijceI4msnkUOn78+KxZswghPj4+U6ZMUZgnMTGRBquoN4b7gwcPHj16RFf0isXi2NhYmS0dQIe9fm2EZqW4uHjHjh2EkKCgINp/rZeKBpNNV9hganAt0G1or4ClccPCFRMTs3//fldXV5kAEjLo+Ofhw4dLly7t06dPSkrKq1evCgsLo6KizMzMnj59On78eIlEQjP7+/sTQtLS0iIiIrgnOXfuHI1XQQhR/VRIE6WbAyoThunu7j58xOcODg5SqfR43J8XUy40dqF0B32IqLa2Vv4l9hsl/zAii939TeEZaKKKtx88eHD8+PFisdjDw2P79u3KpqfogsDevXv369dP2amoTz75pKioqKio6Pr168OGDbt58+aYMWNOnDih+l2gG16zNkJzs3Xr1oqKClNT06+//lrNt9AGk20bZdB0hXVMg2uBbkN7BSyNGxZWTk5OSEgIn8/ftm2bwiE6i47Sy8rK3Nzc4uLi3N3dCSHGxsYTJkygUZ3T0tLYaCjDhw8fPHgwIWT58uUjRoz47bff9u/fHxwcPHLkSHd3dzqfpnBWranTzQGVoaGhg0Pr/gMGLl2+yr1HT0JI4umExi6U7jA1NSWEVFVVyb8kEonogYo1cvTt3MzyZ1D23Y6MjJw6dapYLB40aNCxY8eU3bXNz88/d+4cIWTChAkqPghlbm5On6fs1KnTwYMH+/btW1NTExYWpqydAl3yOrURmqH9+/cTQry9vZU9bCCP1jGFFYxNV9hganAt0G1or4ClccNCSaXSadOmlZSUhIWF9ejRQ51rEUK+/fZbmQrm6elJQ6QkJPzTzebxePv27aOxB5OSkoKDgwMCAn777bc+ffocOHCATpopfGakqdPxoBR8Pv/L8RNvpd3My8tr7LLoDhsbm0ePHrEPF3KxEcxVhFW0srLS19evra1VcQb5t9fU1AQHB9P54vHjx2/atElFtL2jR49KJBIDAwM2jqea9PX1Z8+enZKSkpmZmZWVxY20DjpJs9oIzdO9e/cePnxICBk7dqz677KxsSGEVFdXCwQC9ilTlrI6ptm1QLehvQKWZg0LKyYm5ty5cwYGBsXFxQsXLmTTMzIyCCFVVVU08bPPPuvXrx97T4fOTclwd3e/detWdnY2m2JmZhYdHX3u3Lnjx4/n5+fb2tp6enoOGTIkJyeHPl6hk6ENdHxARQixsrJydGz34kVBYxdEd3Tq1Ck1NZX75WHRkDJWVlZWVlbK3m5kZOTs7JyZmaniDDI7XFVWVvr7+ycnJ/N4vCVLlnz33XeqS/jnn38SQoYMGaKiGAUFBQYGBtzQNBQbeSY3NxcDKp2nQW2EZuvYsWOEECsrK7qgRU2dOnWiB9nZ2fRxbS5ax+SbGs2uBboN7RWwNGtYWEVFRYQQsVi8ceNG+VerqqpoCHU7O7t+/fqx234qfPaJrkSVX8U3YMCAAQMGcFNu3rxJCLG0tMSAqqni6em906HJ7C7/Secadp20durZs+eOHTuuXLki/9Lly5cJIR9++KHqM/To0SMzM/PKlStBQUEyL9HTcs9QVVXl5+d39uxZAwODqKgo+ryjCmKxmJ5ERUekb9++N2/e/Oabb2hIYi52MtNabk8z0EkNqo3QnNEN8QYOHNigzegcHBwcHBzy8vIuX74s0+95/vx5Tk4OUVTHNLsW6Dy0V0Bp1rCwunXrFhISIp+ekZERHx9vZGQ0Y8YMQghdDdi1a1dDQ8Pq6uq0tDR2IMd6/PgxIaR9+/b017t37169etXS0lJ+iRB9zkpmlNXkKNvQSKs77m/Eq1evcp7/PStkbmMXRF0zBlWZmmr1/8vw4cNDQkIKCgpOnTo1dOhQNr2srIzeVa13jcrIkSMPHjwYHx//8uVLOm1NXbhwISsri8/nc7+H8+bNO3v2LJ/PP3DgAPdyyqSnp9PVw+wOdPI++OCDmzdvHjx4cOnSpTKLjHft2kUIsbe379y5c73XAh3QoNoIzZZEIrlx4wYhRPU2DAqNHDly8+bNe/bsCQwM5KbTNcwdOnSQWUjzOtcC3Yb2ClgNbVi4PDw8FPaRoqOj6YCKbjxDmZmZDR06NDY2lt7U5gYDy87OvnDhAiFk+PDhNOXSpUuzZ89u1arViBEjuFEx/v7775iYGEKITGmbnJDPFKfrWlCK/xe1ecO6nx88uE9/LS0pidryq8/wzzu7uTVuwXSJjY3N+PHjCSHBwcH0zgQhpLKycurUqaWlpU5OTr6+vmzmly9fBgUFBQUFsQ8sEkK8vLxcXV0rKiomT57Mbkfw7NkzuteKr68vu2vhhQsXfvvtN0LIuHHjWrVqdUMRmZ0WaEfE0NCwS5cuyj5CUFCQgYHBixcvgoKC2N2+JRJJREREdHQ0IWThwoX17gUMukH92gjNWWZmZllZGfnfLVtlLl26RFu8rKwsNnHmzJlGRkZ//fVXeHg4fYSAEJKcnBwZGUkImTt3rp7e//lbrOa1oBlCewWsBjUsu3btCgoKUjgrpY7vvvtOX1//6tWr8+fPZxf+vXz5cuLEiTU1NT169GAjKo8YMcLIyKiwsJAbij0vL8/f318kEvXt21fFhldNGo/uuq1WVr0msPBg9X9XZT56RAixsbExN7fg8/mfeXl37da9scullqoqUZWo0sLCgg2oorWKiooGDhz45MkTExMTLy8vMzOzxMTEnJwchmHi4+M/+OADNufjx4+7du1KCFmxYkVoaCibfvnyZR8fH6FQaG9v7+npKRQK4+Pjy8vLO3bsmJSUxD7aNHr06FOnTqkuzM6dO/38/Nhfly5dGhkZ6eLikp6eruJd27dvDwkJkUql9vb2/fv3ZxiGxqIghAQGBtLVwwoVFBS4uLgQQlJTU+lH0355eXkODg6NXQrtpWZtBBnNql4lJSWNGDGCEJKRkdGmTRtl2Xbu3EmjnJ85c4a73mbDhg10T7z33nuvd+/e2dnZycnJEolkzJgxu3btkrl9o+a1dFWzqlcaQHulGZ2sV+o3LFOnTj1w4ICRkRG7PbRC0dHRkydPtrCwkI/lFhUVFRoaKpVKHR0dBwwYIBaLT548WVpaamNjk5CQ4Orqyub85ZdfFi1aRAjp2rVrz549i4uLExISKisrO3bsePLkSTs7uzf5T9DY2Hql1UvLNLAgbHFOznNBWZmBoWGrVrYKdxPXcpcf89lH+/q6qszaeKytrRMSEkJDQ2NjYw8d+mffZDc3t/Xr13NHUyr06dMnPj5+zpw5N2/epNPTPB5v2LBh69ev5/49uHr1akPLlp+fTwhxdHRUnS0gIKBt27YLFy588ODBwYMHaWL79u3DwsLUCbYOukTN2gjNGW1Y+Hy+vb29Bm8PDg62trYODw+/c+fOnTt3CCHGxsYBAQErV66Unwx/zWuBbkN7BawGNSyv6auvvnJxcVm0aNHdu3f37t1LCNHT0/P29o6MjGzXrh035+zZs83NzVetWnX79u3bt28TQgwMDPz9/VevXm1ra/tmS/XvS3lYd8ztpevaDFWTRmemiCeBAAAgAElEQVSopu2pu4MSN78Ri6OWwsLC+/fvi0Si9u3bs3FgGuTx48dZWVl6enpubm6N0nvIzMxkH6nk3mLRJTp5Z+5taPTa2LSgXjWURCJJT0/Pz883NTXt3r27sp30mjnUKzWhvWoQHa5X/3LD8uTJk6dPnxoaGnbs2FHFAKmmpiY9Pb2goMDU1LRbt25NcYZDIZ+IuuO4+XX1CgMqLdIUB1TQJOjwHxJoRKhX8DagXsHbgHoFb4SyAZWuBaUAAAAAAAD412BABQAAAAAAoCEMqAAAAAAAADSEARUAAAAAAICGMKACAAAAAADQkK7tQ6UD+rxTw+fj/wUAAAAAQIso2yEWHXetM2dYlakp/l8AAAAAALTIgs8Vp2PJHwAAAAAAgIYwoAIAAAAAANAQlpZpnbRn+sbG/xz3dG7UogAAAAAAACGEkOtZdcfcXjoGVFrnv7HG7HHc/EYsCAAAAAAA/GNpdN0xt5eOJX8AAAAAAAAawoAKAAAAAABAQxhQAQAAAAAAaAgDKgAAAAAAAA1hQAUAAAAAAKAhDKgAAAAAAAA0hLDpWqd7u1p9ff3GLgUAAAAAANRRtkMsBlRaJ2y4yNTUtLFLAQAAAAAAdZb7KU5vwICqXFDyZsoCSkil0sYuAgAAAAAANABPIBComVX9nPA6pFIpj8dr7FIAAAAAAED9GjBDpaeHCBZvl1QqlUql+cKWxsbGNMWtTeOWCHREXl6eg4NDY5cCdA3qFbwNqFfwNqBewRtxL6fu2K1NXb1qwIDKzNzyjRcLuKqqRFWiyvBDxmxK3PxGLA4AAAAAAPxj/r66Y24vHZNOAAAAAAAAGsKACgAAAAAAQEMYUAEAAAAAAGgIAyoAAAAAAAANYUAFAAAAAACgIQyoAAAAAAAANNSAsOnw73C1r9XX12/sUgAAAAAAQB1lO8RiQKV1VowRmZqaNnYpAAAAAACgTsR4xelY8gcAAAAAAKAhDKgAAAAAAAA0hCV/Wie7SM+k8p9j51aNWhQAAAAAACCEEJJVWHfM7aVjQKV15u83YY/j5jdiQQAAAAAA4B/BO+qOub10LPkDAAAAAADQEAZUAAAAAAAAGsKACgAAAAAAQEMYUAEAAAAAAGgIQSlAc/n5+QcOHLh9+7ZEInF2dvb19XVzc2vQGdLT0w8dOpSVlWViYuLm5ubv729nZ6cwZ0FBweHDh9PT08vKylq0aNGtW7cxY8ZYW1tzC5OYmKj6cjY2NsOGDeOm3Llz5/jx448ePaqqqrK1tfXw8BgxYoShoaH8e6uqqo4ePXrx4sWysrK2bdsOGDBgyJAhDfqwoOXUr43QfEil0n379tWb7YsvvtDX16/3VKdPnz59+nR+fr6VlZWHh8fIkSNNTEy4Gd7UtUDnob0Cqt6GpUEKCwuXL19ubGwcGRmpMENWVtaRI0cePnwoEonatWs3fPjwDz/8UGHOe/fuHTlyJDMzk2EYV1fXL774olUrXQ5dzRMIBOpm1TN4q0V5SyoqKgry851dXHg8XmOXpR5VVaIqUeW0PQ5sijZH+YuNjQ0MDCwvL2dTeDzerFmzvv/+ezX/qZctWxYZGSmVStkUMzOzjRs3+vn5yeRcv3790qVLq6uruYkMw6xZs+Y///kP/fXMmTM+Pj6qr9irV6+zZ8/SY6FQ+M033+zfv18mT7t27fbs2fPBBx9wE2/cuDF+/Phnz55xE7t37/777787OTmpvqg2yMvLc3BwqD9fM6Z+bQRWc6hXNTU1LVq0qDdbUVGRsbGxigxCoXDs2LHJycncRBcXl3379nXt2vXNXqupaw716jWhvdKATtYrdRqWBvH19Y2Pj7ewsMjLy5N/dcWKFWvWrKmpqeEmTpgwYdOmTXx+3QxNTU3NggULtmzZwq2iJiYmCxcunDt3rgal0io+EXXHcfPr6pWOz1BJpdJfN61/+ODB5qhtBgZNY0DoZC3R09P2pZjXrl2bPHmySCTy8vIKCAhgGObYsWNRUVHr1q2zsLBYsGBBvWfYtGnTTz/9pK+vHxQU5O3tLRAIoqKiEhMTAwIC7Ozs+vfvz+aMiooKCwsjhPTt23fSpEmOjo5Pnz7duHHjnTt3Zs6caWZmNnr0aEKIqalp586dFV5LJBJlZWURQjp27MgmTps27ciRIzweb8KECcOGDbOysrp161ZkZOSzZ8+GDx+ekpLyzjvv0JwZGRleXl4CgaBly5bz5s3r1atXYWHhli1bzp8//8knn5w7d87R0fE1/i2h8alfG6G54fF4yhoWQsiDBw+kUqmzs3O9f1+mTJmSnJxsZWUVFhbm7u6enZ0dERGRkZExatSo1NRUW1vbN3gt0G1or4ClTsOivq1bt8bHxyt7dcmSJWvXruXxeIGBgSNHjqypqTl06NCePXv27t1rbW39ww8/sDlDQkJ27txJCPHy8po8ebKlpeWFCxd+/vnnJUuWlJaWLl++XNOPqxWU7hArUFt5hajJ/cQcOjzO33+cv39xSRMof9Grktzc3PLycqnW+/TTTxmG+fLLL7mJW7duZRimZcuWz58/V/324uJiOzs7hmF+/fVXNlEikUyaNIlhmF69ekkkEppYXl5ub2/PMMzUqVPZRKlUKhaLhw4dyjBMhw4damtrVV9uwoQJDMN4eHhUVFTQlJSUFIZhGIbZsWMHN2dubm67du0Yhpk0aRKb6OXlxTCMk5PTkydP2MSampovvviCYZhx48apvro2yM3NbewiaC/1ayPIaOb1asuWLQzD2NvbZ2RkqM6ZlJTEMIyFhUVaWhqbWFJS0r17d4Zh5s6d+wavpQOaeb1SDe2VxnSvXr1+w8KVkZFhY2NDu0b29vYyr6alpZmbmzMMs3XrVm76ihUrGIZp0aJFYWEhTWH7V2FhYdycV69etbS0NDMz45ZWB7D1SttnQl7H87//vnD+nKmpaWMXRNdcvXo1NTWVECJzmyEgIMDNzU0kEu3Zs0f1GbZv3y4QCBwdHadPn84m8ni81atX8/n8u3fvXrp0iSYmJiaWlZURQlavXs1dScjn81esWEEIyc3NvXXrloprbdq06fDhw2ZmZnv27GEYhiYeOXKEENK5c+fJkydzMzs4OMyaNYsQwt6kyc7OpqsEV65c6ezszObU19dfs2aNvr7+n3/+ef/+fdWfF7SZ+rURgHX9+nU6Fb9+/fp3331XdeZ169YRQsaMGdOtWzc2sUWLFuHh4YSQvXv3CoXCN3Ut0G1or4D1mg0Ll1gsnjJlSmVlpbe3t8IMGzdurK2tHTRoUGBgIDd99uzZhoaGYrH4woULNGX37t2EEGdn55UrV3Jz9urVa9KkSRKJ5KefflL3EzYpOjugEovF27f9v8lTAgwUBRiA13Hy5ElCiKura4cOHbjpPB6PfhVjY2PVOcPQoUNlHq22t7enDy/FxcXRFLFY7O7u7u7uLv8sI7t+r7CwUNmFMjMzFy9eTAhZuXIlu4SPEEKf4u3Xr5/8W2h/pby8nLZE169fpx/t888/l8np4OBAg3AkJCSo/rygzdSvjQBUdXV1YGBgdXX16NGj631qRSgUnj9/nhDi5eUl85Knp6eBgUF5efmZM2feyLVA56G9Auo1GxYZq1atunnzpq+vr8JGRiwW03oVGhoq85K5uXlmZmZxcfGoUaNoyl9//UUIGT58uHzsnE8//ZQQkpiYKOU8W6UzdHZAdTgmumu37u++27H+rFrmRRmvoJTQH+2Unp5OCOHeEWG9//77hJA7d+7IPLPY0DOkpaXRX319fVNSUlJSUuRzsvNC9vb2yi4UGhpaXV3ds2fPadOmcdNXrlx57dq1n3/+Wf4tDx48IIRYWFjQIDnFxcWEEHNzcwsLC/nMNMwg/TjQRKlfGwGoDRs2ZGRkmJubq3Or9eHDhzSgTvfu3WVeMjU1dXFxISrrWIOuBToP7RVQr9mwcF28eHHt2rWtW7emU17yHj16VFZWxufzPTw8aIpEIqmoqKDH1tbW3NjItNfUunVr+fPQLpNAIHj69Kk6BdNObBddppeumwOqe/fuZmY++vzzUY1dEE0E72ECogj90U402F27du3kX2rbti0hpKamRmF8GKqkpITGllQYH4+eQSaenkK//PILIaR169b0r4i8uLg4Gkg9IiJCzcCD5eXlW7duJYSw0dXNzc0JIZWVlTIxBqmXL18SQlR8WNByb6o2QvORm5v7448/EkJCQ0NV3M1hsfVHYfQa1XWsodcC3Yb2Cliv07BwCQSCwMBAqVQaFRVlaWmpMM/du3fphYyMjJKSkry9vVu2bGlra+vk5DRv3rxXr15xM9NeU2mpgjkB2mUiTbzXxHbRZXrpOjigqqio2Ld3d+D0GXr6OvjptAG9/aAwvC/9IhFCSkpKlL2d/e4pnPMxMzNjL6HC7t276QR0WFiYssESjTkzcODAPn36qD4ba86cObm5uXw+f/78fyLWv/fee4SQmpqa06dPy2R+/vw5nSXjxo6HpuWN1EZoVtatW1dRUWFpaTlz5kx18tP6Y2xsbGRkJP8qbTOVNZgNvRboNrRXwHqdhoVr9uzZz549mzFjxqBBg5TloQ9W2NjYrFmzZsSIEWfPntXT09PT03v58uXmzZv79evHnXGivSaF0QLZfpRO9pp0cMixZ/fOoUM/ww53bw+dq1G4EQqbqHA+hxKLxfRA4cZzNJHNo9Dx48dp6AgfH58pU6YozJOYmEiDVagTw51avHjx77//TghZtWoVG7zYzc2Ntg7ffvttTk4Om7m6ujo4OLi2tpYQonp9I2iz16+N0KwUFxfv2LGDEBIUFET7r/VS0WCy6QobTA2uBboN7RWwNG5YuGJiYvbv3+/q6ioTQEIGHf88fPhw6dKlffr0SUlJefXqVWFhYVRUlJmZ2dOnT8ePHy+RSGhmf39/QkhaWlpERAT3JOfOnaPxKoiO9pp0bR+q1EsXa2pq+g8Y2NgF0WV0FxQ6lpDBfqPkH0Zksbu/KTwDTVTx9oMHD06fPl0sFnt4eGzfvl3Z9BRdENi7d2+FkSdkSKXSb7/9dvPmzYSQr7/+Ojg4mPvqmjVrvL29s7Oz+/TpExgY6Obmlp+fv3v37vv373/88ccXL15UeH8ImoTXrI3Q3GzdurWiosLU1PTrr79W8y20wWTbRhk0XWEd0+BaoNvQXgFL44aFlZOTExISwufzt23bpnCIzqKj9LKysi5dusTFxdHMxsbGEyZMsLW1HTVqVFpaWlxc3IgRIwghw4cPHzx4cGJi4vLly1NSUkaOHMkwzMWLF/fu3evu7n779u2qqiqd7DXp1ICqqOjl8bjYBQsXNXZBdByNRF9VVSX/kkgkogdsgHJlb+dmlj+Dsu92ZGTksmXLpFLpoEGD9u/frywmfn5+/rlz5wghEyZMUPFBqMrKysDAwGPHjhFCvv3222XLlslk6Nu37759+6ZNm/bq1Sv2jouJicmWLVuePn168eJFhasfoUl4ndoIzdD+/fsJId7e3soeNpBH65jCCsamK2wwNbgW6Da0V8DSuGGhpFLptGnTSkpKlixZ0qNHD3WuRQj59ttvZSqYp6dnt27dbt26lZCQQAdUPB5v3759U6ZMOXHiRFJSUlJSEs3Zv3//nTt30njLOtlr0qkB1YnjcaWlpd+vWsFNLCstJYSEL15IeGT2nHlYCvj6bGxsHj16xD5cyMVGMJePcs6ysrLS19evra1VcQb5t9fU1AQHB9P54vHjx2/atInenlHo6NGjEonEwMCAjeOpzIsXL3x9fa9fv66vrx8ZGcnd2YPLx8fn7t27v//+O42Z06VLly+++MLe3p4+2KAwmg00CZrVRmie7t279/DhQ0LI2LFj1X+XjY0NIaS6ulogELBPmbKU1THNrgW6De0VsDRrWFgxMTHnzp0zMDAoLi5euHAhm56RkUEIqaqqoomfffZZv3792Hs67u7u8qdyd3e/detWdnY2m2JmZhYdHX3u3Lnjx4/n5+fb2tp6enoOGTIkJyeHBkzXyV6TTg2oWrSwtLWzlUl8xeMROkznET31Qr2Bap06dUpNTeV+eVg0pIyVlZWVlZWytxsZGTk7O2dmZqo4g8wOV5WVlf7+/snJyTweb8mSJd99953qEv7555+EkCFDhqgoBiEkMzNzxIgR2dnZ5ubmu3fv9vT0VJG5ZcuW33zzjUzizZs3CSF0NypoijSojdBs0XlsKyurwYMHq/+uTp060YPs7Gz6QCYXrWPcXfJe51qg29BeAUuzhoVVVFRECBGLxRs3bpR/taqqioZQt7Oz69evH7vtp8Jnn+hKVPlVfAMGDBgwYAA3hXaZLC0tMaDSdiM+Hzni85EyifNCZ5cUFy9YuFjFhIZWsbWQqhnju7H07Nlzx44dV65ckX/p8uXLhJAPP/xQ9Rl69OiRmZl55cqVoKAgmZfoablnqKqq8vPzO3v2rIGBQVRUFH3eUQWxWExPorojkp2d7eXllZOT4+DgcOTIEWWx12traw8fPpyfn+/n5ycTtvjZs2d0S5CBAweqLhJoswbVRmjO6IZ4AwcObNBfEwcHBwcHh7y8vMuXL8v0e54/f05D3cjXMc2uBToP7RVQmjUsrG7duoWEhMinZ2RkxMfHGxkZzZgxgxBCVwN27drV0NCwuro6LS2NHcixHj9+TAhp3749/fXu3btXr161tLSUXyJEgzPLjLKaHDslyxV1akClGzZMrFT2aJCWGD58eEhISEFBwalTp4YOHcqml5WV0buq9a5RGTly5MGDB+Pj41++fEmnrakLFy5kZWXx+Xzu93DevHlnz57l8/kHDhzgXk6Z9PR0unqY3YFOXlVV1dixY3Nyclq3bn369Gm2IZCnr6//7bffFhYWGhgY0PaFtXbtWkJInz59unTpUm+pQGs1qDZCsyWRSG7cuEEIUX8bBtbIkSM3b968Z8+ewMBAbjpdw9yhQweZhTSvcy3QbWivgNXQhoXLw8NDYR8pOjqaDqjoxjOUmZnZ0KFDY2Nj6U1t7k3/7OzsCxcuEEKGDx9OUy5dujR79uxWrVqNGDGCGxXj77//jomJIYTIlLbJ2f6V4nQdDJsOb5uNjc348eMJIcHBwfTOBCGksrJy6tSppaWlTk5Ovr6+bOaXL18GBQUFBQUlJCSwiV5eXq6urhUVFZMnT2a3I3j27Bl9JMnX15fdtfDChQu//fYbIWTcuHGtWrW6oYjMTgu0I2JoaKhinLNmzZo7d+4QQubOnfvq1SuFp2Wntv38/AghERERf//9N3uGrVu3btu2jRCydOlSzf4ZQUuoXxuhOcvMzCwrKyP/u2WrzKVLl2iLl5WVxSbOnDnTyMjor7/+Cg8Pp48QEEKSk5MjIyMJIXPnztXT+z9/i9W8FjRDaK+A1aCGZdeuXUFBQQpnpdTx3Xff6evrX716df78+Wzv6OXLlxMnTqypqenRowcbUXnEiBFGRkaFhYXcUOx5eXn+/v4ikahv374qNrxq0nh01221suo1yYUHdMnf5qht2r9woqpKVCWqtLCw0PIZKkJIUVHRwIEDnzx5YmJi4uXlZWZmlpiYmJOTwzBMfHz8Bx98wOZ8/Phx165dCSErVqwIDQ1l0y9fvuzj4yMUCu3t7T09PYVCYXx8fHl5eceOHZOSklq2bEmzjR49+tSpU6oLs3PnTjrmoZYuXRoZGeni4kLX48mrrq5u3769wm28uZ48eUJDmBQVFX388cd///23qampp6enpaXl1atX6cbhq1evlomxrp3y8vIcHBwauxTaS83aCDKaVb1KSkqiMawyMjLatGmjLNvOnTtplPMzZ85w19ts2LCB7on33nvv9e7dOzs7Ozk5WSKRjBkzZteuXTLLvNW8lq5qVvVKA2ivNKOT9Ur9hmXq1KkHDhwwMjJit4dWKDo6evLkyRYWFnl5eTIvRUVFhYaGSqVSR0fHAQMGiMXikydPlpaW2tjYJCQkuLq6sjl/+eWXRYsWEUK6du3as2fP4uLihISEysrKjh07njx5UseCw7H1SveX/EWu+aWxi9AwAhGv9n/3FCy0NfyptbV1QkJCaGhobGzsoUOHaKKbm9v69eu5oykV+vTpEx8fP2fOnJs3b9LpaR6PN2zYsPXr13P/Hly9erWhZcvPzyeEODo6Ksvw6NGjekdTXNbW1omJibNnzz558uSRI0doorOz89KlS7kDOWi61KyN0JzRhoXP58s8S6mm4OBga2vr8PDwO3fu0OlxY2PjgICAlStXyj80+5rXAt2G9gpYDWpYXtNXX33l4uKyaNGiu3fv7t27lxCip6fn7e0dGRnZrl07bs7Zs2ebm5uvWrXq9u3bt2/fJoQYGBj4+/uvXr3a1lY2dFyTUyasO+b20nV/hqoJoTNU0/bU3UGJm9+IxVFLYWHh/fv3RSJR+/bt2TgwDfL48eOsrCw9PT03Nzct7z0UFBTcu3dPLBa3a9fO1dVVy2OHcOnknbm3oQnVRm2AetVQEokkPT09Pz/f1NS0e/fuZmZmjV0ibYR6pSa0Vw2iw/XqX25Ynjx58vTpU0NDw44dO6oYINXU1KSnpxcUFJiamnbr1s3CwuKtlupf4xNRdxw3v65eYUClRZrigAqaBB3+QwKNCPUK3gbUK3gbUK/gjVA2oEJQCgAAAAAAAA1hQAUAAAAAAKAhDKgAAAAAAAA0hAEVAAAAAACAhjCgAgAAAAAA0JDu70PV5JgbS5tQPG4AAAAAgOZA2Q6xGFBpnW0Blaampo1dCgAAAAAAqPN7sOJ0LPkDAAAAAADQEAZUAAAAAAAAGsKSP60jriXi2n+ODfQbtSgAAAAAAEAIIXVddPJ/e+kYUGmdCVvqHqCKm9+IBQEAAAAAgH+MWlN3zO2lY8kfAAAAAACAhjCgAgAAAAAA0BAGVAAAAAAAABrCgAoAAAAAAEBDGFABAAAAAABoCAMqAAAAAAAADSFsutbB3lMAAAAAANpGWS8dAyqts3dGhampaf35AAAAAADg33IkVHF6AwZU5YKSN1MWUEIqlTZ2EQAAAAAAoAF4AoFAzazq54TXIZVKeTxeY5cCAAAAAADq14AZKj09RLB4u6RSqVQqbdGiBZb8wZuVl5fn4ODQ2KUAXYN6BW8D6hW8DahX8Daw9aoBAyozc8u3Vh4ghJCqKlGVqHLClrrRlLKVmgAAAAAA8G8atabumNtLR1AKrSOubewSAAAAAADA/6Wsl45VfAAAAAAAABrCgAoAAAAAAEBDGFABAAAAAABoCAMqAAAAAAAADWFABQAAAAAAoCEMqAAAAAAAADSEsOlaZ++MCmzsCwAAAACgVZTtEIsBldYx0CcG+o1dCAAAAAAA4FDWRceSPwAAAAAAAA1hQAUAAAAAAKAhLPnTOoHbGR7vn+Pfgxu1KAAAAAAAQAgh5MsNdcfcXjoGVFpHIOLVnwkAAAAAAP5FZULF6VjyBwAAAAAAoCEMqAAAAAAAADSEARUAAAAAAICG8AwVaC4/P//AgQO3b9+WSCTOzs6+vr5ubm4NOkN6evqhQ4eysrJMTEzc3Nz8/f3t7OwU5szNzY2Ojk5PT6+trXVycvr888/d3d0V5hQKhX/++eeVK1cKCwuNjY07duz4+eefd+zYUWHmtLS0Y8eOZWVlGRsbd+rUacyYMY6OjjKfMTExUfWnsLGxGTZsmBofF7Sa+rURmiGpVHrmzJnk5OScnBxCSNu2bT09Pfv166fZ2aKjo2NiYn788cf27dsrzHD58uUTJ048e/ZMX1+/U6dOo0ePfueddzQuPOgetFdASaXS06dPnz59Oj8/38rKysPDY+TIkSYmJpqdrbCwcPny5cbGxpGRkTIvvXjxIjk5WdkbfX19+fz/M6bIyso6dOjQ/fv3a2pqHB0dP/vss48//lizUjUJPIFAoG5WPYO3WhSoqhJViSqn7XFgU+LmN2Jx6hEbGxsYGFheXs6m8Hi8WbNmff/99zyeWnE1li1bFhkZKZVK2RQzM7ONGzf6+fnJ5Ny2bdv8+fOrqqq4iaNHj/7111/Nzc25iWfOnAkICCgoKOAm8ni86dOnR0REcL/tNTU1s2bN2rVrFzengYHBggULFixYwD2hj4+P6g/Sq1evs2fPqs7TuPLy8hwcHOrP14ypXxuB1Xzq1dOnTydOnHjjxg2Z9P79++/atcvW1rZBZ8vMzOzbt69AIEhNTe3atavMq0KhMDAw8OjRo9xEfX397777btGiRRoUvslpPvVKY2ivNKCT9UooFI4dO1ZmnOPi4rJv3z75tkUdvr6+8fHxFhYWeXl5Mi/t3r175syZyt5YUFBgZmbG/hoZGblixYra2lpuHh8fn+3bt3OzNUU+EXXHcfPr6pXOzlAlnDqZkHCSmxISMtexXbvGKo+OuXbt2uTJk0UikZeXV0BAAMMwx44di4qKWrdunYWFBXdAosymTZt++uknfX39oKAgb29vgUAQFRWVmJgYEBBgZ2fXv39/NmdMTExISAghZMiQIQEBAVZWVpcuXYqMjDx8+LBQKIyJiWFz3rx509fXVyQStWvXbvbs2W5ubi9evIiJifnzzz+joqKkUunPP//MZg4NDd21a5e+vv706dO9vb1ra2uPHj26c+fOlStXmpiY0CsSQkxNTTt37qzwI4hEoqysLEKIsukvaCrUr43QDJWXl/v4+GRlZZmams6aNat37961tbXnzp3bvHnz+fPnR44cefbsWUNDQzXP9vjxYy8vLxW3MoOCgo4ePaqvrz9jxgwvLy+RSLRv377Dhw//8MMP5ubms2bNekMfC5oqtFfAmjJlSnJyspWVVVhYmLu7e3Z2dkREREZGxqhRo1JTUxt6r2fr1q3x8fHKXr19+zYhxNLSUuG4VF9fnz3esWPH0qVLCSHDhg2bOnWqhYXF6dOn169fHxcXN2XKlOjo6AaVqskQqK28QtRUfopelQYGBI7z92d/Fi1c1OilUqPYJfu0mo0AACAASURBVLm5uXkvK0orpfRHa3366acMw3z55ZfcxK1btzIM07Jly+fPn6t+e3FxsZ2dHcMwv/76K5sokUgmTZrEMEyvXr0kEglNFIvFHTp0kL9WcnKyqakpwzDnz59nE728vBiG6d69u0Ag4GZetmwZwzCmpqYPHjygKffu3WMYhmGYLVu2cHOuWLGCYRg7O7uysrJ6/xEmTJjAMIyHh0dFRUW9mRtXbm5uYxdBe6lfG0FGM6lX//3vfxmGsbKyunv3Ljc9MTGRtkLbtm1T81THjx9v3bo18z+3bt2SyXD//n2FTdPMmTMZhrG1tdX+1ub1NZN6pRm0VxrTvXqVlJTEMIyFhUVaWhqbWFJS0r17d4Zh5s6d26CzZWRk2NjY0PbH3t5ePsOQIUMYhvnpp59Un6e2ttbZ2ZlhmPHjx3PT//jjD3rylJSUBhVM27BddNpLZ+uVbgalOJOc9NHHfdf8vJ79mTvv28YulLrMjaUWJoT+aKerV6+mpqYSQpYvX85NDwgIcHNzE4lEe/bsUX2G7du3CwQCR0fH6dOns4k8Hm/16tV8Pv/u3buXLl2iiSkpKbm5ufLX+uSTTzp06EAIYWe6i4qKzp07RwhZsmSJzITyokWLTE1NpVLpqVOnaAq9QeLg4MAtACFk2rRphBCBQPDXX3+p/gibNm06fPiwmZnZnj17GIZRnRm0mfq1EZqnw4cPE0ImTZok84zop59++umnnxJCVNzTZWVlZU2cONHPz6+kpKRbt27KstGm1cjIaOrUqdz0b775hhBSXl4uv+wQmhW0V8Bat24dIWTMmDHcJqVFixbh4eGEkL179wqFSrZMkiMWi6dMmVJZWent7a0sT3p6OiGkR48eqk/15MkT+tjFjBkzuOnjxo2ztrYmhJw/f17NUmkntosu00vXwQFVdXX12TNJn3l5t+AwMjJu7HLpjpMnTxJCXF1d6ZCGxePx6FcxNjZWnTMMHTqUO0dMCLG3t//ggw8IIXFxcTSlW7duBw8e/O9//ytzLUKIlZUVIYRtL16+fNm7d29HR0f5bzufz3d2diaEvHjxgqZMnDhxx44dq1evlnncy9LSkh5UVlaqKH9mZubixYsJIStXrsST4k2d+rURmic7O7sOHTr07t1b/iW63LewsLDekyxevPjw4cN8Pn/+/PkHDx5Ulk0qlRJC9PT0ZGqjhYUFPaipqWlQ4UHHoL0CSigU0pGJl5eXzEuenp4GBgbl5eVnzpxR82yrVq2iD00oewwvKyurrKyMENK9e3c1zym/EJq2Y2KxWM0zNC06OKA6eyZJKBQeO3r4xo3r+NvzNtC7FApvsr7//vuEkDt37qj+l6/3DGlpafRXKysrb29v+ccGcnNzaR76J4QQ4urqmpSU9ODBA/moWSKR6OnTp4QQe3t7muLs7Dx27FhfX1+ZnPROM5/PV91khIaGVldX9+zZk85oQZOmfm2E5ik2NvbWrVvjxo2Tf+n+/fuE07CowOfzR48efe3ataVLlxoYKI3w1LNnT0KIUCiUCS76559/EkIMDQ3fe++9hpYfdAnaK6AePnxYXV1NFI1wTE1NXVxciNqV4eLFi2vXrm3dujWd8lKIPkDl5OTUsmXLFy9eJCQkHD9+/MGDB/I5nZyc6EwUbbVY6enptCdGWzndo2tBKaqrq0/Gx1dUVJw9k3z2TLKllZX/uC979fqwscvVAMF7GHbWZPtXjVoUJZ49e0YIaacowkfbtm0JITU1NXl5eTLxx1klJSX0gWwnJydlZ6CXUCYpKWn+/PnV1dW9evUaOXJkvQXetm1beXk5j8cbOnSosjxVVVV//PFHWFgYISQoKKhNmzbKcsbFxdG+TkREhJrxDEFrvX5thGbr1q1bNLynioaFtXnzZnXWBnfr1m3cuHH79+//6quv1q5dO2TIkNra2ujoaPqE99y5c21sbF674NBUob0CFvsfrbCv1bZt24cPH6pTGQQCQWBgoFQqjYqKYhfpyKMDKhsbmy+++CIuLk4ikdD0Tp06rVmzZuDAgWxOAwODFStWfP311xs2bLCyspo0aZKZmVlKSkpISIhUKu3Xr99nn33WkA+qdQKi6o65vXTdG1BV+Y31Lykpznj48P79+yXFxVGbN+U8/3vkqDGNXTR1vSjT9j56cXExIaRFixbyL7FBzEtKSpQNqF69ekUP2EUsXPTxJ3oJeYMGDXrw4EFpaSkhxM/P7+eff5bZ90De3bt3V6xYQfO/++678hkyMjLGjRv37NkzoVBoYGAQHh7+7beqnrj74YcfCCEDBw7s06eP6kuD9nud2gjNWXl5eUBAgFQqdXJyGj9+fL351X/SMioqqnPnzpGRkRMmTODxeHQRoLW19Q8//IAp8WYO7RWw6H+0sbGxkZGR/Ku0M1ZSUlLveWbPnv3s2bOZM2cOGjRIRbZbt24RQq5fv379+vXOnTu3b98+Pz//1q1bDx48GDFixPbt27lrBSdPnmxlZbVo0aLw8PDw8HDajvH5/ODg4CVLlujpNe3FcQWlitOb9qeSZ2Zm7vHRx595+YTMCf3+v6vde/QkhMTF/nn9r2uNXTTdQWeZjY0VPJbGJtI8CrHLZxVuPEcTFS6xLS0tvXLlCvtSamrq3r17VRf18ePHn3/+eUVFhZOT09q1axXmefDgwaNHj2ivRSwWx8bGqti6LjExkTYr6oSGB+2ncW2E5qyystLPz+/+/fuGhoY7d+5U2KHR2N27d8+cOUMnIiwtLWkvuaSk5PLly+xToNA8ob0CloqeGJuuoidGxcTE7N+/39XVdeXKlapz0hmqNm3anDp16q+//oqJiUlJSbly5cq7775bW1s7Y8YM7mzYq1evjh8/TiOKmZqa0ifea2pqbty4oXCVoG7QtQEVl7W1TdDXwR/37UcIif3zaL35QU30AQCZ/doodhZY5nlZLnZOSeEZaKLCt5uYmOTn5xcWFj59+nTOnDk5OTkLFiygwSEUunPnjqenZ15enq2t7dGjR+lXWt4nn3xSVFRUVFR0/fr1YcOG3bx5c8yYMSdOnFCY+ZdffiGE9O7du1+/fsquC02IxrURmq3S0tIRI0acP3+ez+dv3779ww/f5JLymzdvDh069OzZs4MHD05LS3v+/Hl+fn5CQkLHjh33798/dOjQoqKiN3g5aFrQXgGL9sTYTpcMmq66MuTk5ISEhPD5/G3btikconNt2bKFbiTVt29fNtHNze3QoUOGhoYikWjz5s00saysbPDgwfv27WvTps2JEycKCgr+/vvv9PT04cOHX7x40cvL68qVKw36pE2FLg+oCCE8Hm/8hP9YWlk9f/68oqKisYujI0xNTQkhVVVV8i+JRCJ6oGJ9C307N7P8GRR+tw0NDeksdqtWrVatWkUX5m3YsIHurisjKSlpyJAh+fn5Tk5Op0+fVrH3rrm5OY1F06lTp4MHD/bt27empiYsLEy+ncrPz6eR2SdMmKDsbNC0aFwboXl6+vTpJ598kpqaamxs/Pvvv48ePfrNnn/hwoUCgaBXr16HDh2iS5R5PN7HH3+ckJDQunXrjIyMn3766c1eEZoQtFfAopVBYU1g01X0xKRS6bRp00pKSsLCwuqNhE4IGTRoUEBAgHxX6p133vH09CSE0N4RIWTjxo0PHz60sLA4efLkgAED6KPmLi4uf/zxh6enZ3l5+dy5c9X6hE2Njg+oCCGGhoYeHh8RQkQidePxg2r0qeiXL1/Kv8SGD27VqpWyt1tZWdG7JirOoOLtrDlz5ujr69fU1LBfY9Zvv/02evTosrKy7t27Jycny4dcV0ZfX3/27NmEkMzMTPlx2tGjRyUSiYGBwahRo9Q8IWi5N1UboTm4du3agAEDHj58aG1tffz4cRUbtmimvLycxkGePXu2zNOhLVu2DAoKIoTExMS82YtCE4L2Cli0J1ZdXU2XB8uotzLExMScO3fOwMCguLh4IceBAwcIIVVVVfTXCxcu1FsSOspiFyQfP36cEPLll1/KBPfi8XiLFi0ihKSlpWVmZqr9QZsMXQtKoZCtrR2fb9CihdLoJdAgnTp1Sk1Nzc7Oln+JLqK1srJStr6OEGJkZOTs7JyZmaniDNwhUGlpqUAgoPGLuCwsLKysrF6+fJmTk8NNX758eUREBCHEx8fnt99+Y2/pySgoKDAwMGjZsqVMOt2xihCSm5srs8cUjQE6ZMgQFZ8OmpaG1kZoto4fPz5p0iShUNixY8dDhw7RqMRvFvsQgsIq17lzZ0JIfn5+VVXVm31qC5oKtFfA6tSpEz3Izs6W302BVgYV+2TSxcNisXjjxo3yr1ZVVdEQ6nZ2duwDDkKhUOH8J11rys6Gqbg0bcRomXWvour+DBUhpKjopbu7e73h4EBNdA8BhatgL1++TAip96ECOr+s8Aw0kT3DwoULW7durXCnOaFQSMP90R0PKHY0NXPmzD/++EPZaKpv374uLi4//vij/Et5eXn0gHtaQohYLKZlGzx4sOpPB02L+rURmq1Tp05NmDBBKBR+9NFHycnJb2M0RThRUvPz8+VfpUG9+Hy+/HaZ0HygvQLKwcHBwcGB/K/fxfX8+XN6o1lFZejWrVuIIjSmuZGREf2V1re4uDg7OzsbGxuFM0s0Upebmxv9lYagVNGIkYZEPW1CdG1AJZVKZaKalJcLrly5PHK07BauWmvDxMrtXxH6o52GDx+ur69fUFBw6tQpbnpZWdmxY8cIIWPHjlV9Brp5VHx8vMy6hQsXLmRlZfH5fHZNHR283b59++bNmzIn+f3332k4IzbWZ3R0NB1NzZs3LzIyUkVoTrod8MGDBysrK2Ve2rVrFyHE3t6evZVCpaen00XJHh4eqj8dNC3q10ZonjIzM//zn/9UV1cPHDgwNjb27U1QOzo60t0m9u/fL/9qdHQ0IaRPnz7Y/q45Q3sFLFoZ9uzZI5O+e/duQkiHDh3c3d2VvdfDw+MHRfz9/QkhRkZG9Fc6PfX+++/TMAR0QSDXnTt36EJl9oHSjz76iBBy5MgR+RiDtBEzMTFRuDN1U8F20WV66bo2oFr/y9qQ4KDYP48JhUJCyJPHj9ev+3n8+P/Y2dk1dtHUZWshtWtB6I92srGxofuuBAcHP378mCZWVlZOnTq1tLTUycnJ17du+Pry5cugoKCgoKCEhAQ20cvLy9XVtaKiYvLkyeXl5TSR7oRACPH19WV3LfTx8aE3g6dPn85d5HD69Gm6Ca+fnx9dv1taWhoSEkII6dKly4gRI24o8vfff9O3BwUFGRgYvHjxIigoiI1WIpFIIiIi6Bd+4cKFMr2WGzduEEIMDQ27dOnyhv4hQSuoXxuheQoODi4vLzczM5szZ869e/fkG5b79++zmS9dukRbPIXBcupFn+H8448/uOtwJBLJqlWr6A2sOXPmvPYHgiYM7RWwZs6caWRk9Ndff4WHh9OtXwghycnJkZGRhJC5c+dybyvv2rUrKCiIdpMaysnJafjw4YSQyMjI06dPs+mZmZlffPGFRCLp1q0bO6CaNWuWvr7+kydPvvrqK+496/j4+FWrVhFCvvrqqyY9Q8V20WV66TyFT7MpxNMzePPletNOJ5yKPrhfIpHweDwThuncqfPoMX529vaNXS61VFWJqkSVFhYWyhaqaY+ioqKBAwc+efLExMTEy8vLzMwsMTExJyeHYZj4+Hg6/0M9fvy4a9euhJAVK1aEhoay6ZcvX/bx8REKhfb29p6enkKhMD4+vry8vGPHjklJSdxHm27cuOHl5SUQCBiG+eSTTxwcHO7cuUPnuHv27HnixAm6T8svv/xCn3dUISAgYP369fR4+/btdN9ue3v7/v37MwyTkpJCp7MDAwPp6mGupUuXRkZGuri4pKenv84/XaPIy8ujawNAIfVrI3A1h3p1/fr1/v37q87TsWNHdgp9586dX3/9NSHkzJkzytbbFBQU0PtEqamptHlkSaXSqVOnHjx4kBDyzjvvfPTRR3p6ehcuXHjy5Akh5LvvvgsPD3/tz6TtmkO9eh1orzSjk/Vqw4YNdFfM9957r3fv3tnZ2cnJyRKJZMyYMbt27eLeF546deqBAweMjIzY7aEVio6Onjx5soWFBfv4A1VQUDB48GDaEH300UedO3fOy8tLTEysrq5u27btyZMn2efPCSFbt26dM2eOVCq1srIaPHiwpaXl7du36ZLUgQMHHjlyRJfWLbP1StceKxriObR3H4/8/DwDAwN7ewfED31LrK2tExISQkNDY2NjDx06RBPd3NzWr1/PHU2p0KdPn/j4+Dlz5ty8eZNOT/N4vGHDhq1fv17m70GPHj0uXLgwb968xMREGj2GEGJhYfHVV18tWLCA3dXu6tWrDfoIAQEBbdu2Xbhw4YMHD2j3hRDSvn37sLAwhVHR6YJguiAHdIz6tRGam4Y2LK+Jx+P99ttvvXv3XrNmzePHj9klAB07dly8ePGYMWP+zcKAdkJ7Bazg4GBra+vw8PA7d+7cuXOHEGJsbBwQELBy5co3uzbYzs7u/PnzixYt2r9//6VLly5dukQIMTIy+vLLL7///ntbW1tu5mnTpr3zzjvh4eE3b96kq34IIVZWVl9//fW8efPoDlq6R9dmqJo0OkO16oQdO0u7YUrjlqh+hYWF9+/fF4lE7du3V7HXkwqPHz/OysrS09Nzc3OzVzmX+OLFi7t37wqFQjs7u65du76p72RmZibttbRv397V1fWNnFPb6OSdubdB/doIBPXqbZJKpQ8fPnz+/Lmenl779u3fUhgM7YR6pSa0Vw2iw/VKIpGkp6fn5+ebmpp2796dLtt5SyorK2/fvl1SUmJlZdWlSxfV18rJyXn06FF1dbW9vX2XLl10Y9fp4B11xxum1NUrDKi0CB1QTdtT94WPm9+IxQHdocN/SKARoV7B24B6BW8D6hW8ET4Rdcdx8+vqla4FpQAAAAAAAPjXYEAFAAAAAACgIQyoAAAAAAAANIQBFQAAAAAAgIYwoAIAAAAAANAQBlQAAAAAAAAa0rWNfXVAxDgh9iMGAAAAANAqynaIxYBK6zhZS0xNG7sQAAAAAADA4dxKcTqW/AEAAAAAAGgIAyoAAAAAAAANYcmf1gk/ZKyv/89xxPhGLQoAAAAAABBCCJm/r+6Y20vHgErrPMzXrz8TAAAAAAD8i+7lKE7Hkj8AAAAAAAANYUAFAAAAAACgIQyoAAAAAAAANIQBFQAAAAAAgIYwoAIAAAAAANAQBlQAAAAAAAAaQth0rbNijMjY2LixSwEAAAAAAHWU7RDbgAFVuaDkzZQFlJBKpYQQV/taU9PGLgoAAAAAAHC4tVGczhMIBGqeQv2c8DqkUimPx2vsUgAAAAAAQP0aMEOlp4cHrt4uqVQqlUpbtGhhiikqeKPy8vIcHBwauxSga1Cv4G1AvYK3AfUK3ga2XjVgQGVmbvnWygOEEFJVJaoSVf431lhf/5+U5X6NWiAAAAAAACCEELI0uu6Y20tHUAqtk/ZMv/5MAAAAAADwL7qepTgdq/gAAAAAAAA0hAEVAAAAAACAhjCgAgAAAAAA0BAGVAAAAAAAABrCgAoAAAAAAEBDGFABAAAAAABoCGHTtU7YcJGxsXFjlwIAAAAAAOoo2yEWAyqt071dralpYxcCAAAAAAA4ejorTseSPwAAAAAAAA1hQAUAAAAAAKAhLPnTOj+fNOL/779lweeNWhQAAAAAACCEELL6WN0xt5eOAZXWufwY/ykAAAAAANol5aHidCz5AwAAAAAA0BAGVAAAAAAAABrCgAoAAAAAAEBDeFwHNJefn3/gwIHbt29LJBJnZ2dfX183N7cGnSE9Pf3QoUNZWVkmJiZubm7+/v52dnbKMl+5cuXEiRPPnj3j8Xhubm5jx45t166dfLaqqqqjR49evHixrKysbdu2AwYMGDJkyGt+hBcvXiQnJys7ia+vL5+Pr1KT16DaCM2NVCo9c+ZMcnJyTk4OIaRt27aenp79+vXT7GzR0dExMTE//vhj+/btFWa4fPkybe709fU7deo0evTod955R+PCg+5BewWUVCo9ffr06dOn8/PzraysPDw8Ro4caWJiotnZCgsLly9fbmxsHBkZKfNSQztCWVlZhw4dun//fk1NjaOj42efffbxxx9rVqomgScQCNTNqmfwVovy9lRXVxcVvZRKSevWrRu7LKpUVYmqRJXT9jiwKXHzG7E49YiNjQ0MDCwvL2dTeDzerFmzvv/+ex6Pp84Zli1bFhkZKZVK2RQzM7ONGzf6+cluQy0QCAICAo4fP85NNDQ0jIiImDZtGjfxxo0b48ePf/bsGTexe/fuv//+u5OTk8YfYffu3TNnzlT2QQoKCszMzFR91MaWl5fn4OBQf75mTP3aCKzmU6+ePn06ceLEGzduyKT3799/165dtra2DTpbZmZm3759BQJBampq165dZV4VCoWBgYFHjx7lJurr63/33XeLFi3SoPBNTvOpVxpDe6UBnaxXQqFw7NixMuMcFxeXffv2ybct6vD19Y2Pj7ewsMj7/+zdd1xTV/848E9IWDcIBFFARURUFKpAXTjrREXcqCBWlq1Ci1uLdVVrrY9if48bitZVF+KGooAoasWBAwERRBBBhgOBBBJW8vvj9LnmG0IIEUoSPu9XXr7CuSfnnouHk3PuPaOgQOJQoxpCQUFBmzZtqq2tFY/j4uJy8OBBJW8vNchl26f3Eas+lSs1v63+/Hla1F+RDAajd+8+ll27tnR21MeDBw+8vLwEAoGzs7Ovry9FURcvXgwJCdm5c6e+vn5gYGCDKezdu3f79u1MJtPf33/ixIlcLjckJCQ2NtbX19fExGT48OF0zNra2mnTpiUkJOjr6y9fvnzw4MGFhYX79u1LSEhYsmRJp06dJkyYQGJmZGQ4OztzuVwjI6MVK1b079//3bt3wcHBN2/eHDlyZHx8vLm5uWKX8PTpUwAwNDSUWh0zmUzFfo1ISchfGlErxOPxXFxcsrOz2Wz2okWLBg4cWFtbGx8fv3///ps3b06dOvXGjRtaWlpypvby5UtSTdUXwd/f/8KFC0wmc+HChc7OzgKB4Pjx4+fOnduyZUubNm0WLVrURJeFVBXWV4jm7e0dFxfH4XBWr17t4OCQk5Ozbdu2jIwM0mpq7L2e0NDQqKio+o7K3xA6dOjQhg0bAGD8+PE+Pj76+voxMTG7du2KiIjw9vY+c+ZMo3KlMrhy45ULVOhV/LFs585d831979590OKZkfP1obgkPz8/Nklw67mIvJTW6NGjKYqaM2eOeGBoaChFUUZGRnl5ebI//vHjRxMTE4qi9u3bRwcKhUJPT0+Kovr37y8UCunwvXv3UhTVvn37xMREOrCmpmbChAkURTk6OtKBzs7OFEVZWFhkZWWJx3R3d6coys3NTeFLGDt2LEVR27dvl31dSis/P7+ls6C8GlUakbhWUq5+/fVXiqI4HE5qaqp4eGxsLJvNpijqwIEDciYVGRnZoUMH6n+SkpIkIqSlpZFDwcHB4uF+fn6kGiwvL/+ca1EJraRcKQbrK4WpX7m6du0aRVH6+vpPnjyhA0tKSuzt7SmKWrZsWaNSy8jIMDY2JvWPqalp3QhyNoRqa2stLS0pivLw8BAPP3nyJEn89u3bjcqYsqGb6KSVTpcr9VyUorJSsP0/vz5NevLD6jVf9O7d0tlpHEermqHWQF7K6f79+wkJCQCwceNG8XBfX18bGxuBQHDs2DHZKRw8eJDL5Zqbm3/77bd0IIPB2Lp1K4vFSk1NvXPnDgkUiUR79uwBgJUrV/bt25eOzGQyly5dCgDJycnv3r0DgJycnBs3bgDAzz//bGlpKR5zx44dTCbz0qVLaWlpil1CcnIyAHz55Zdy/HqQipG/NKLW6dy5cwDg6ekpMcFy9OjRo0ePBgAZ93Rp2dnZX3/99cyZM0tKSuzs7OqLRuolbW1tHx8f8fDvv/8eAHg8Xt1hh6hVwfoK0Xbu3AkAM2bMEK9SDAwM1q9fDwB//vknn8+XM6nq6mpvb++KioqJEyfWF0fOhlBWVlZRUREALFy4UDzczc2tbdu2AHDz5k05c6Wc6Ca6RCtdDTtUQqEweN/e7Oysbxf6m5kp9aQpFXXlyhUAsLa27tatm3g4g8Egf4qXL1+WJ4Vx48ZJDJYzNTXt168fAERERJCQhw8f5uTk6OjoSPxlAsCoUaNycnJKS0vbtWtHYpI8TJkyRSKmmZkZaQlFR0crcAnZ2dllZWUAYG9vL/u6kCqSvzSi1snExKRbt24DBw6se6hHjx4AQO7pyLZ27dpz586xWKxVq1aFhYXVF00kEgGAhoaGRGnU19cnb2pqahqVeaRmsL5CBJ/PJz0TZ2dniUNOTk6ampo8Hu/69etyprZ58+bHjx+7urrWNw1PgYZQ3YHQpB6rrq6WMwXVooYdqhvX45KTn/brP8DW9ouWzot6IncppN5k7d27NwCkpKTI/tZvMIUnT56QHxMTEwGgb9++9CzGqqoqgUAAAEwm09jYmP5S+fjxIwC0adOGbnmII/dFyHkbewlk3LCFhYWRkdHbt2+jo6MjIyOfP38u4wKRCpG/NKLW6fLly0lJSW5ubnUPkYfepqamDSbCYrGmT5/+4MGDDRs2aGrWu8ITeQ7P5/NjY2PFwy9dugQAWlpaX3yB32utGtZXiEhPT6+qqgJpPRw2m921a1eQuzD8/fffv/32W4cOHcgjL6nkbwhZWFiQFheptWjJycmvXr2C/9Vy6kfdFqXg8/mXLp4HgPHj/+myi0QiORedUxLBcdr0ypOLJ7RoVupB1tCTumR5p06dAKCmpqagoEB8BQhxJSUlZEJ23WX36BToZfqePXsGAFZWViKRKDQ0NDQ09Pnz50KhsHv37j4+Pv7+/vQynW3atAGAioqKqqqquvdF3r9/DwD0qjWNugRSjxgbG7u7+4TxLwAAIABJREFUu0dERAiFQhKzZ8+eO3bsGDFihPRfE1IFjSqNCIlLSkoiw4zHjRvXYOT9+/dTFNVgNDs7Ozc3t1OnTi1YsOC3334bO3ZsbW3tmTNnyAzvZcuWGRsbf3bGkarC+grR6P9oqW2tTp06paeny1MYuFzu/PnzRSJRSEiIoaFhfdHkbwhpampu2rTpu+++2717N4fD8fT01NPTu3379uLFi0Ui0bBhw+iFxFTUTrEh3uKtdHXrUD1+9JDH4xkbG799W3T61Ins7CwAsLG1dXef266Rq520lOtpn/5TlLNDRZ4FGRgY1D1EejUAUFJSUl+Hqri4mLyR+iiJPIkip4D/jaUxNDScOXMmmaigq6vL5/NfvHixevXq2NjYM2fOaGtrAwC5cVtTUxMTEyMxCDgvL4/cSKZXSG/UJSQlJQHAw4cPHz582KtXry5duhQWFiYlJT1//nzy5MkHDx7ElWpVV6NKI0I0Ho/n6+srEoksLCw8PDwajC9Pb4oICQnp1atXUFDQ3LlzGQwGGQTYtm3bLVu2SOwSgVobrK8QjfxH6+jokCaQBNKSKSkpaTCdJUuWvH792s/Pb9SoUTKiNaoh5OXlxeFw1qxZs379+vXr15N6jMViBQQErFu3TkNDtQfHxSR/ei/eSlftq6rr8eNHAFBTUyMQCL5ftGT7jv8OGjTkaVLSli0/f/xY3NK5UxPkKbOOjk7dQ3QgiSMVPXxW6sZzJJCOQ+7GHTlyJCoqytPTMyMj4/37969fvyYrUly7dm3dunUkpo2NDelTrVy5kuy8SeckICCAbIZAj+Jr1CWQGzMdO3a8evVqYmJieHj47du37927171799ra2oULF+IdQdXVqNKIEFFRUTFz5sy0tDQtLa3Dhw9LbdAoLDU19fr166TqMzQ0JK3kkpKSu3fvvn37tglPhFQO1leIJqMZQ4fLaIkR4eHhp06dsra2/vnnn2XHbFRDqLi4ODIyMj8/HwDYbDaHwwGAmpqaR48eqfF0CXXrUBUW5AOAy6Qpw78awWaz27RpM8/Lu5O5Obes7NzZ8JbOnZogEwAk9msj6KfAMrZmogfpSU2BBNIfJ12g0tJST0/Pffv2dezYEQDatm27efNm0qcKDQ2lGxk7duxgsVg5OTmOjo4bN248c+bM7t27hwwZEhMTQ/bnpts9jbqE4OBgsn/C0KFD6Wg2NjZnz57V0tISCAT79++v72KRkmtUaUQIAEpLSydPnnzz5k0Wi3Xw4MEBAwY0YeKPHz8eN27cjRs3xowZ8+TJk7y8vMLCwujo6B49epw6dWrcuHEfPnxowtMh1YL1FaKRZgzdYpFAwmUXhjdv3ixevJjFYh04cEBqF12c/A2hsrKyMWPGHD9+vGPHjn/99VdRUVFubm5ycvKkSZP+/vtvZ2fne/fuNepKVYW6dahKS0sBQF9sKBeDwRg+fAQAPHmMq802DTabDQCVlZV1D5HlIkDm+BbycfHIdVOg/7bpdOgnUbQVK1YwmcyqqioyjQEAhg4devz4cX19/eLi4m3btnl5eQUGBmZnZwcHB5O9Dukxfo26hFGjRvn6+pLlvMRZWVk5OTkBQHx8fH0Xi5Rco0ojQq9evRo5cmRCQoKOjs6JEyemT5/etOn/+OOPXC63f//+Z8+e7d69OwAwGIwhQ4ZER0d36NAhIyNj+/btTXtGpEKwvkI0UhiklgQ6XEZLTCQSffPNNyUlJatXr5ZnSxj5G0J79uxJT0/X19e/cuXKV199RVYx6Nq168mTJ52cnHg83rJly+S6QlWjbnOoWCxNAND+v2sS9OzZCwD4fD6fz8e65vMZGxu/ePGCLPMggV4+mCxlLhWHw2EymbW1tTJSoD9OpkiamZnV3Znb0NCwS5cuL1++zMnJoQNdXFxSU1NPnDhBFrextbV1d3c3NTX18/MDgA4dOjTJJdBI5YLjcFRXo0ojauUePHjg6ur6/v37tm3bhoWFOTo6Nm36PB6PrIO8ZMkS+lkEYWRk5O/vv3bt2vDw8K1btzbteZGqwPoK0cj6NFVVVVwul577TWuwMISHh8fHx2tqan78+PHHH3+kwzMyMgCgsrKSBE6YMGHYsGGycyLREIqMjASAOXPmkCFFNAaDsWbNmujo6CdPnmRmZkpsWqMG1K1DZdzOuKyslF57gDDkcACAyWQ27Uj3Vqtnz54JCQni3RgaGUTL4XDIkFmptLW1LS0tMzMzZaRA/6VZW1tD/YPCSZtD4r/VyMiIbIIp7vHjxwBA78vZ2EuorytOhljIP90cKZtGlUbUmkVGRnp6evL5/B49epw9e5asSty06EkIUotcr169AKCwsLCyshK/y1onrK8QrWfPnuRNTk5O3d0USGGwsrKq7+Nk8HB1dfWePXvqHq2srCRLqJuYmNAdKjkbQjJOTSoxkmf1K6jqNuSvd287AMjJeSUeSObhdLHsqupLiygJsoeA1FGwd+/eBYAGJxWQ58tSUyCBdApkp8L379/n5eVJxKyuriZ/t2QBWbK48O7duwsLCyVivn79muzdQa/sKf8lREREmJiYGBsbZ2Zm1o1M1r2h+2lIFclfGlGrdfXq1blz5/L5/MGDB8fFxTVHbwrElhitW4nB/xb1YrFYdbeFQK0H1leIoEfukEaLuLy8PLI0l4zCYGdnt1gasqa5trY2+ZGUt0Y1hMgSlDIqMVDT29Dq1sEYMXKUjo5OYuIDYe2niXpv8vIAYMyYsS2Xr0ZYOKpy8QQgL+U0adIkJpNZVFR09epV8fCysrKLFy8CwKxZs2SnMHXqVACIioqSGLdw69at7OxsFos1bdo0EvLVV1+R59ohISESiZw7d47P51MUNXr0aABgMpkrV64MDAy8cOGCRMzffvsNABwdHW1tbRt7Cb179y4vLweA06dPSySbkpJCxuc0+TwK9G+SvzSi1ikzM3PevHlVVVUjRoy4fPmyjMfvn8nc3Jxs1XDq1Km6R8+cOQMAjo6OqrWzImpaWF8hGikMx44dkwg/evQoAHTr1s3BwaG+zw4aNGiLNLNnzwYAbW1t8iN5PNWohtDgwYMB4Pz583XXGCSVmK6urtSdqVUF3USXaKWrW4eqTZs28zy9PxYXR8dcISHCWmFkxKV+/Qf0HzCwZfMmp5G9asb2BvJSTsbGxmTflYCAgJcvX5LAiooKHx+f0tJSCwsLV1dXOvL79+/9/f39/f2jo6PpQGdnZ2tr6/Lyci8vL3p8JtkJAQBcXV3pXQtZLNaqVasAYNeuXWFhYXQKjx8/XrFiBQDMnz+fLCsMAGQbhG3btuXm5tIxQ0NDDxw4AABkZ8zGXoKFhcWkSZMAICgoKCYmhk4hMzPT3d1dKBTa2dlhh0qlyV8aUesUEBDA4/H09PSWLl367NmzR3WQbe6IO3fukBovOztbgXMtWbIEAE6ePCk+DkcoFG7evJnc/SGrm6JWC+srRPPz89PW1k5MTFy/fj3ZsA4A4uLigoKCAGDZsmXiw7KOHDni7++/ePFiBU7UqIbQokWLmExmVlbWggULKioq6MhRUVGbN28GgAULFqj0Eyq6iS7RSmeQzS7kwdDQbPp8NY+/b986E3aqb7/+ZmYdnjx5bN7JfMbMWRJzfJVQZaWgUlChr69Pr+SjtD58+DBixIisrCxdXV1nZ2c9Pb3Y2Ng3b95QFBUVFUXG6REvX77s06cPAGzatGn58uV0+N27d11cXPh8vqmpqZOTE5/Pj4qK4vF4PXr0uHbtmpGRER1TKBT6+PiQGxsODg4ODg5kHeGampq+fftevXqVHtT74cOHIUOG5ObmstlsJycnQ0PD+/fvp6amAsDWrVsDAgIUu4SioqIxY8ZkZWUBwODBg3v16lVQUBAbG1tVVdWpU6crV65YWlo2xy+5CRUUFNRd1QPR5C+NSFxrKFcPHz4ka4TK0KNHDzJLEwAOHz783XffAcD169frG29TVFREBg0mJCSQ6pEmEol8fHzIzSMrK6vBgwdraGjcunWL1D8//PDD+vXrP/ualF1rKFefA+srxahludq9e3dgYCAAfPHFFwMHDszJyYmLixMKhTNmzDhy5Ij402wfH5/Tp09ra2vT20NLdebMGS8vL319/YKCAvHwRjWEQkNDly5dKhKJOBzOmDFjDA0Nnz59Soakjhgx4vz58+o0bvlTueLKjVcuUKFX8ceyJ0+Sk5KS373/2OKZkfP1obgkPz+fx+OJVEF+fr67u7uenh71P/369btz545EtMzMTHI0KChI4tD9+/eHDBlCf5zNZk+fPj0vL6/uuWpra3fv3t2lSxc6crt27VasWFFRUSERMzc3d8aMGWw2m45pa2sbFhb2OZcgEomKi4v9/Pw4HA4dk8PhzJ8/v6ioSN7fV4vKz89v6SwoO/lLI6K1hnK1b98+qiH29vZ0/EOHDpHAe/fu1ZdmYWEhiZOUlFT3qFAo3L9/f7du3SROER4e3ixXqHxaQ7n6TFhfKUBdy9Xx48etrKzowmBkZLRy5UqBQCARzdvbmzRdZKcWFhZGUZSpqWndQ41qCF27dk28iFIU1bFjxy1btlRVVSl8pcqJLlfq+YRKRZEnVOeSjMl+bQDw7eiWzVHD3r17l5aWJhAIunTpUneDAnm8fPkyOztbQ0PDxsbG1NRURkyhUJiSklJUVMThcHr27EmP9KurqKjo2bNn1dXVnTt3tra2lj3lQP5LqKioePr0aUlJCYfDsbW1lZEBZaOWd+aag/ylEQGWq+YkEonS09Pz8vI0NDS6dOnSTMtgKCcsV3LC+qpR1LhcCYXC5OTkwsJCNpttb2/frI2TRjWE3rx58+LFi6qqKlNTU1tbW/XYdfr3a5/efzv6U7nCDpUSIR2qb459+oOPWNWC2UHqQ42/SFALwnKFmgOWK9QcsFyhJuGy7dP7iFWfypW6LUqBEEIIIYQQQv8a7FAhhBBCCCGEkIKwQ4UQQgghhBBCCmKVcoUNxwIAAEODZs0JQgghhBBCCKkYfEKFEEIIIYQQQgrCDhVCCCGEEEIIKYjV0hlAkryGVanTHtIIIYQQQgipgfp2iMUOldKZ0KeazcYOFUIIIYQQQkpkcl/p4TjkDyGEEEIIIYQUhB0qhBBCCCGEEFIQDvlTOqfvaWlq/vP+62EtmhWEEEIIIYQQAAAcu/XpvXgrHTtUSudcoib9HjtUCCGEEEIIKYPTCZ/ei7fSccgfQgghhBBCCCkIO1QIIYQQQgghpCDsUCGEEEIIIYSQgrBDhRBCCCGEEEIKwg4VQgghhBBCCCkIO1QIIYQQQgghpCBcNl3pzB5YpaWl1dK5QAghhBBCCH1S34ZGjehQ8bglTZMXVA+RSAQA0/tVs9nYoUIIIYQQQkiJzB4kPZyRl18qZxIaUN5k2UH1E4lEDAajpXOBEEIIIYQQalgjnlBpaOCEq+YlEolEIpGBgQGbzW7pvCC1UlBQYGZm1tK5QOoGyxVqDliuUHPAcoWaA12uGtGh0mtj2Gz5QQAAlZWCSkHFpUea9BSqGQNbNEMIIYQQQgghAAA4e+/Te/FWOi5KoXSOJ3yaQIUdKoQQQgghhJTBofhP78Vb6TiKDyGEEEIIIYQUhB0qhBBCCCGEEFIQdqgQQgghhBBCSEHYoUIIIYQQQgghBWGHCiGEEEIIIYQUhB0qhBBCCCGEEFIQLpuudCZ/Wa2pqdnSuUAIIYQQQgh9Ut+GRtihUjoeg6rYbOxQIYQQQgghpES8v5IejkP+EEIIIYQQQkhB2KFCCCGEEEIIIQXhkD+lE5OiqaX1z3tnhxbNCkIIIYQQQggAAP56/Om9eCsdO1RK50C8Fv0eO1QIIYQQQggpg30xn96Lt9JxyB9CCCGEEEIIKQg7VAghhBBCCCGkIOxQIYQQQgghhJCCcA4VUlxhYeHp06efPn0qFAotLS1dXV1tbGwalUJycvLZs2ezs7N1dXVtbGxmz55tYmIiNWZRUdG5c+eSk5PLysoMDAzs7OxmzJjRtm3bujErKysvXLjw999/l5WVderU6auvvho7dmx9GcjOzj579mxaWlpNTY25ufmECROGDBlSN9rbt2/j4uLqS8TV1ZXFwj8llSd/aUStkEgkun79elxc3Js3bwCgU6dOTk5Ow4YNUyy1M2fOhIeH/+c//+nSpYvUCHfv3v3rr79ev37NZDJ79uw5ffp0KysrhTOP1A/WV4gQiUQxMTExMTGFhYUcDmfQoEFTp07V1dVVLLV3795t3LhRR0cnKChI4lBjG0Jytq/UBiMvv1TOqIYG2s2aFVRZKagUVHxzzIwOiVjVgtlpwOXLl+fPn8/j8egQBoOxaNGiX375hcFgyJPCTz/9FBQUJBKJ6BA9Pb09e/bMnDlTIuauXbs2bNhQVVUlHkhR1I4dO+bNmyce+OjRIw8Pj9evX4sH2tvbnzhxwsLCQiLZoKCgTZs21dbWige6uLgcPHhQT09PPPDo0aN+fn71XUhRUZFEfGVTUFBgZmbWcLxWTP7SiGitp1y9evXq66+/fvTokUT48OHDjxw50r59+0allpmZOXToUC6Xm5CQ0KdPH4mjfD5//vz5Fy5cEA9kMpk//PDDmjVrFMi8ymk95UphWF8pQC3LFZ/PnzVrlkQ/p2vXrsePH69bt8jD1dU1KipKX1+/oKBA4lCjGkLyt69Ujsu2T+8jVn0qV2p4W33f3t1ZWS/rhhsYGKxbv/Hfz49aevDggZeXl0AgcHZ29vX1pSjq4sWLISEhO3fu1NfXDwwMbDCFvXv3bt++nclk+vv7T5w4kcvlhoSExMbG+vr6mpiYDB8+nI4ZEhKyevVqABg6dKinp6e5ufmrV6/27NmTkpLi5+enp6c3ffp0EjMjI8PZ2ZnL5RoZGa1YsaJ///7v3r0LDg6+efPmyJEj4+Pjzc3N6WQPHTq0YcMGABg/fryPj4++vn5MTMyuXbsiIiK8vb3PnDkjntunT58CgKGhodTqmMlkKvJLREpD/tKIWiEej+fi4pKdnc1msxctWjRw4MDa2tr4+Pj9+/ffvHlz6tSpN27c0NLSajghAAB4+fIlqabqi+Dv73/hwgUmk7lw4UJnZ2eBQHD8+PFz585t2bKlTZs2ixYtaqLLQqoK6ytE8/b2jouL43A4q1evdnBwyMnJ2bZtW0ZGxrRp0xISEhp7ryc0NDQqKqq+o/I3hBrVvlIfefmlcr545QLlf73MynF3c3ObPbvua/fuPS2ePdmvD8Ul+fn5O/+q2hstIi+lNXr0aIqi5syZIx4YGhpKUZSRkVFeXp7sj3/8+NHExISiqH379tGBQqHQ09OToqj+/fsLhUISyOPxTE1NKYry8fGhA0UiUXV19bhx4yiK6tatW21tLQl0dnamKMrCwiIrK4uOWVNT4+7uTlGUm5sbHVhbW2tpaUlRlIeHh3jGTp48SVEURVG3b98WDx87dixFUdu3b5fnl6OE8vPzWzoLykv+0ogktJJy9euvv1IUxeFwUlNTxcNjY2PZbDZFUQcOHJAzqcjIyA4dOlD/k5SUJBEhLS2NHAoODhYP9/Pzoyiqffv25eXln3MtKqGVlCvFYH2lMPUrV9euXaMoSl9f/8mTJ3RgSUmJvb09RVHLli1rVGoZGRnGxsak/jE1Na0bQc6GUGPbVyqHbqKTVjpdrtRtUYr4G9dHjhz969bt+0MO/B56iLy27/gvg8Ho339gS+dOLr7Dq/zHAnkpp/v37yckJADAxo3/54mfr6+vjY2NQCA4duyY7BQOHjzI5XLNzc2//fZbOpDBYGzdupXFYqWmpt65c4cExsbGlpWVAcDWrVvFRxKyWKxNmzYBQH5+flJSEgDk5OTcuHEDAH7++WdLS0s6JpPJ3LFjB5PJvHTpUlpaGgnMysoqKioCgIULF4pnzM3NjczLunnzpnh4cnIyAHz55ZcN/3aQqpG/NKLW6dy5cwDg6ekpMUd09OjRo0ePBgAZ93Rp2dnZX3/99cyZM0tKSuzs7OqLRqpWbW1tHx8f8fDvv/8eAHg8Xt1hh6hVwfoK0Xbu3AkAM2bMEK9SDAwM1q9fDwB//vknn8+XM6nq6mpvb++KioqJEyfWF0fOhlBj21cqh26iS7TS1apDJawV6uhoz5n7dbv27TU1NTWYGuT15PEjiqJsbGxbOoNq4sqVKwBgbW3drVs38XAGg0H+FC9fvixPCuPGjZMYLGdqatqvXz8AiIiIICHV1dUODg4ODg7t2rWTSKRHjx7kzbt37wDg4cOHJA9TpkyRiGlmZkZaQtHR0RKH6g7U0dfXJ+elQ7Kzs0mnzt7eXvZ1IVUkf2lErZOJiUm3bt0GDpRyS47UQqQKkm3t2rXnzp1jsVirVq0KCwurL5pIJAIADQ0NidJI6iUAqKmpaVTmkZrB+goRfD6f9EycnZ0lDjk5OWlqavJ4vOvXr8uZ2ubNmx8/fuzq6lrfNDwFGkLytK/UiVp1qDSYGpOnTKsbnph4/8sv+2kw1epiWxC5SyH1Jmvv3r0BICUlRfa3foMpPHnyhPzo6up6+/bt27dv141JP24yNTUFgI8fPwJAmzZt6JaHOHJfhJwXACwsLEjIpUuXJDL26tUrAOjbty8dSMYNW1hYGBkZvX37Njo6OjIy8vnz5zIuEKkQ+Usjap0uX76clJTk5uZW9xCphUgVJBuLxZo+ffqDBw82bNigqalZXzRS8/D5/NjYWPFwUlNpaWl98cUXjc0/UidYXyEiPT2drNRVt4fDZrO7du0KcheGv//++7fffuvQoQN55CWV/A2hRrWv1In69zHKysoy0tP7DRjQ0hmR16101vVUIC/lRNbQ69y5c91DnTp1AoCampq668PQSkpKyITsusvu0SlILNMn1X//+18A6NChA/kWadOmDQBUVFRILAZIvH//HgDoXGlqapIRg7t3796xY8f79+8FAkFsbCyZZzVs2LAJEybQnyX1iLGxsbu7u5WV1bRp02bNmtW3b9++ffuSQYZIdTVVaUStUFJSEqkBxo0b12Dk/fv3Hzt2jH6uXh87OzvSc1uwYMH58+d5PF5paemBAwfIDO9ly5YZGxs3QdaRasL6CtHo/2jx1bZo8hcGLpc7f/58kUgUEhJiaGhYXzT5G0KNal+pIrqJLtFKZxm0UfM+1aOHiWy2Xq+ejdsfqQXtif20PP1IpRylSJ4FGRgY1D1EejUAUFJSIvWPHACKi4vJG6mPksh6muQUMhw9epQMbFi9ejWZW0Vu3NbU1MTExEgMAs7LyyM3ksUXeffy8uJwOGvWrFm/fv369esZDIZIJGKxWAEBAevWrdPQ+PR3QeZoPXz48OHDh7169erSpUthYWFSUtLz588nT5588OBBXKlWdTVJaUStEI/H8/X1FYlEFhYWHh4eDcanKErOlENCQnr16hUUFDR37lxSLwFA27Ztt2zZ8s0333xWppGKw/oK0ch/tI6Ojra2lD2NSGOspKSkwXSWLFny+vVrPz+/UaNGyYjWqIaQ/O0rVbQj8tN78Va6al+VPBIf3P+yb18c79eEyCMgHR2duofoQKmPiQh6+KzUjedIoOwhtpGRkWTtYBcXF29vbxJoY2ND+lQrV64kO2/SOQkICCCbIYgPRCwuLo6MjMzPzwcANpvN4XBIhEePHkk8xSY3Zjp27Hj16tXExMTw8PDbt2/fu3eve/futbW1CxcuxDuCquvzSyNqhSoqKmbOnJmWlqalpXX48GGpDRqFpaamXr9+nTyIMDQ0JK3kkpKSu3fvvn37tglPhFQO1leIJqMlRofLaIkR4eHhp06dsra2/vnnn2XHbFRDSP72lTpR824Gt6wsIyO9X3+VGe+nEsgEAIn92gihUEjeyNiaid5LW2oKJFDGx8PCwjw8PKqrqwcNGnTw4EHxpf927NjBYrFycnIcHR03btx45syZ3bt3DxkyJCYmhuzPTbd7ysrKxowZc/z48Y4dO/71119FRUW5ubnJycmTJk36+++/nZ2d7927RycbHBxM9k8YOnQoHWhjY3P27FktLS2BQLB///76couU3GeWRtQKlZaWTp48+ebNmywW6+DBgwOadDz548ePx40bd+PGjTFjxjx58iQvL6+wsDA6OrpHjx6nTp0aN27chw8fmvB0SLVgfYVopCVGN7okkHDZheHNmzeLFy9msVgHDhyQ2kUXJ39DqFHtK3Wi5h2qh48S2Wx2z569WjojaoXNZgNAZWVl3UMCgYC8kTG+hXxcPHLdFOr72w4KCvLx8amurh41atTFixcl9tseOnTo8ePH9fX1i4uLt23b5uXlFRgYmJ2dHRwcTPY6pIcp7tmzJz09XV9f/8qVK1999RXplXXt2vXkyZNOTk48Hm/ZsmV0sqNGjfL19a07+cHKysrJyQkA4uPj67tYpOQ+pzSiVujVq1cjR45MSEjQ0dE5ceIEvat4U/nxxx+5XG7//v3Pnj3bvXt3AGAwGEOGDImOju7QoUNGRsb27dub9oxIhWB9hWikMEgtCXS4jJaYSCT65ptvSkpKVq9eLc+WMPI3hBrVvlInrJbOQPNKfPDgy779VH28prIxNjZ+8eIFWeZBAr18cN1VzmkcDofJZNbW1spIoe7Ha2pqAgICjh49CgAeHh579+6VulKWi4tLamrqiRMnyOI2tra27u7upqamfn5+ANChQwcSLTIyEgDmzJnTsWNH8Y8zGIw1a9ZER0c/efIkMzNTYl34ukjlguNwVJdipRG1Tg8ePHB1dX3//n3btm3DwsIcHR2bNn0ej0fWQV6yZAn9LIIwMjLy9/dfu3ZteHj41q1bm/a8SFVgfYVoZH2aqqoqLpdLT1+nNVgYwsPD4+PjNTU1P378+OOPP9LhGRkZAFBZWUkCJ0yYMGzYMNk5kWgINVX7SuWoc4eKy+VmpD93cZnU0hlRNz179kxISMjJyal7iAyi5XA4ZMisVNra2paWlpmZmTJSkPjfezmBAAAgAElEQVRLq6iomD17dlxcHIPBWLdu3Q8//CAje0ZGRmQTTHGPHz8GAHpfTnIWKyuruh/v1euf55k5OTl0Nvh8vtTbfmSIhfzTzZGyUaA0otYpMjLS09OTz+f36NHj7NmzZFXipkVPQpBa5EjVVFhYWFlZ2bSztpCqwPoK0Xr27Ene5OTk1N1NQUYjhyCDh6urq/fs2VP3aGVlJVlC3cTEhO5QydkQamz7Sm2o86ObRw8T2Xp6Pax7tnRG1A3ZQ0DqKNi7d+8CQIOTCsjzZakpkEDxFCorK2fOnBkXF6epqXnw4MH6elO1tbVk0lRhYaHEodevX5O9O0aMGEFCyBJJdWOC2BJJpHaIiIgwMTExNjbOzMysG5mse0P305AqalRpRK3T1atX586dy+fzBw8eHBcX1xy9KRBbJVVG1cRisepul4laD6yvEGFmZmZmZgb/a3eJy8vLI0tzySgMdnZ2i6Uha5pra2uTH0l5a1RDSP72lZpR5w5VYuL9vio43m+Ydc1IWyAv5TRp0iQmk1lUVHT16lXx8LKysosXLwLArFmzZKcwdepUAIiKipIYt3Dr1q3s7GwWizVt2qcNmlesWHHjxg0Wi3X69OnZs2fXlyaTyVy5cmVgYOCFCxckDv32228A4OjoaGv7z+908ODBAHD+/Pm6a+CcOXMGAHR1dcnOib179y4vLweA06dPS8RMSUkh43OafB4F+jc1qjSiVigzM3PevHlVVVUjRoy4fPmyjMfvn8nc3JzsNnHq1Km6R0nV5OjoKL4SD2ptsL5CNFIYjh07JhFOJkd069bNwcGhvs8OGjRoizSklaWtrU1+JI+nGtUQkr99paLoJrpEK13FOhvy4/G46c+fq+L6ft+PqVw+EchLORkbG5N9VwICAl6+fEkCKyoqfHx8SktLLSwsXF1d6cjv37/39/f39/ePjo6mA52dna2trcvLy728vOi9ochOCADg6upK71p469atP/74AwDc3NzatWv3SBp6pwWyDcK2bdtyc3Ppc4WGhh44cAAAyM6YxKJFi5hMZlZW1oIFCyoqKujwqKiozZs3A8CCBQvIHRQLC4tJkyYBQFBQUExMDB0zMzPT3d1dKBTa2dlhh0qlyV8aUesUEBDA4/H09PSWLl367NmzulUQ2eaOuHPnDqnxsrOzFTjXkiVLAODkyZPi43CEQuHmzZvJDaylS5d+9gUhFYb1FaL5+flpa2snJiauX7+ebFgHAHFxcUFBQQCwbNky8ScKR44c8ff3X7x4sQInalRDSP72lYqim+gSrXQG2exCHgwNKWsAKK2b8TcunD+34//tVKGbeZWVgkpBhb6+Pr2Sj9L68OHDiBEjsrKydHV1nZ2d9fT0YmNj37x5Q1FUVFRUv3796JgvX77s06cPAGzatGn58uV0+N27d11cXPh8vqmpqZOTE5/Pj4qK4vF4PXr0uHbtmpGREYk2ffp0iedgdR0+fJh0pT58+DBkyJDc3Fw2m+3k5GRoaHj//v3U1FQA2Lp1a0BAgPinQkNDly5dKhKJOBzOmDFjDA0Nnz59SoZMjBgx4vz58/S4mqKiojFjxmRlZQHA4MGDe/XqVVBQEBsbW1VV1alTpytXrlhaWn72b7R5FRQUkLEBSCo5SyOS0BrK1cOHD8kaoTL06NGDzNIEgMOHD3/33XcAcP369frG2xQVFZFBgwkJCaR6pIlEIh8fn7CwMACwsrIaPHiwhobGrVu3SP3zww8/rF+//rOvSdm1hnL1ObC+Uoxalqvdu3cHBgYCwBdffDFw4MCcnJy4uDihUDhjxowjR46IN4B9fHxOnz6tra1Nbw8t1ZkzZ7y8vPT19QsKCsTDG9UQkr99pQY+lSuu3HjlAhV6paSmJSUlt3g2GvX6UFySn5/P4/FEqiA/P9/d3V1PT4/6n379+t25c0ciWmZmJjkaFBQkcej+/ftDhgyhP85ms6dPn56Xlycep2PHjlRDwsLC6Pi5ubkzZsxgs9n0UVtbW/EI4q5duyaeAYqiOnbsuGXLlqqqKomYxcXFfn5+HA6HjsnhcObPn19UVKTgr+/flZ+f39JZUHbylEYkoTWUq3379jVYBdnb29PxDx06RALv3btXX5qFhYUkTlJSUt2jQqFw//793bp1kzhFeHh4s1yh8mkN5eozYX2lAHUtV8ePH7eysqILg5GR0cqVKwUCgUQ0b29v0nSRnVpYWBhFUaampnUPNaohJH/7StXR5Uptn1CpIvKEKuMDh976eqDSL4Ly7t27tLQ0gUDQpUuXuhsUyOPly5fZ2dkaGho2NjampqZNkquioqJnz55VV1d37tzZ2tpa9lPKN2/evHjxoqqqytTU1NbWVsZGeBUVFU+fPi0pKeFwOLa2thK7YCkztbwz1xyaozSqMSxXzUckEqWnp+fl5WloaHTp0qWZlsFQTliu5IT1VaOocbkSCoXJycmFhYVsNtve3r5ZGyeNagjJ375SIffEFuYY2O1TucIOlRIhHapvjn36g49Y1YLZQepDjb9IUAvCcoWaA5Yr1BywXKEm4bLt0/uIVZ/KldouSoEQQgghhBBCzQ07VAghhBBCCCGkIOxQIYQQQgghhJCCsEOFEEIIIYQQQgrCDhVCCCGEEEIIKQg7VAghhBBCCCGkIFZLZwBJ6t+1Vj2W6kcIIYQQQkhtOHaXHo4dKqWzYoKAzWa3dC4QQgghhBBCn6ydJj0ch/whhBBCCCGEkIKwQ4UQQgghhBBCCsIhf0on9Q1TR+ef9306t2hWEEIIIYQQQgAA8PT1p/firXTsUCmdTRd06PcRq1owIwghhBBCCKF//Hjq03vxVjoO+UMIIYQQQgghBWGHCiGEEEIIIYQUhB0qhBBCCCGEEFIQdqgQQgghhBBCSEHYoUIIIYQQQgghBWGHCiGEEEIIIYQUhMumKx3bjrVMJrOlc4EQQgghhBD6pL4dYhvRoeJxS5omL6geIpEIANZPFbDZ7JbOC0IIIYQQQuiTLW7SwxlcLlfOJOSPiT6HSCRiMBgtnQuEEEIIIYRQwxrxhEpDAydcNS+RSCQSiQwMDPAJFWpaBQUFZmZmLZ0LpG6wXKHmgOUKNQcsV6g50OWqER0qvTaGzZYfBABQWSmoFFS8fKuhq/tPSHfTFs0QQgghhBBCCAAAXhR+ei/eSsdFKZTOj2d06fcRq1owIwghhBBCCKF/LD366b14Kx1H8SGEEEIIIYSQgrBDhRBCCCGEEEIKwg4VQgghhBBCCCkIO1QIIYQQQgghpCDsUCGEEEIIIYSQgrBDhRBCCCGEEEIKwmXTlY5VeyHuoYwQQgghhJBSqW+HWOxQKZ0tM/lsNrulc4EQQgghhBD65P/Nkx6OT0IQQgghhBBCSEHYoUIIIYQQQgghBeGQP6VTUKKhW/nP+45GLZoVhBBCCCGEEAAAvCn+9F68lY4dKqWz5Lgu/T5iVQtmBCGEEEIIIfSPBQc+vRdvpeOQP4QQQgghhBBSEHaoEEIIIYQQQkhB2KFCCCGEEEIIIQXhHCqkuMLCwtOnTz99+lQoFFpaWrq6utrY2DQqheTk5LNnz2ZnZ+vq6trY2MyePdvExERqzLKysrCwsEePHnG53Hbt2g0dOnTy5MkslpQCXFtbe/ny5Vu3br19+1ZPT8/BwWHWrFmGhoZSk01JSYmMjHzx4kVlZWX79u0HDRo0efJkLS2tujErKysvXLjw999/l5WVderU6auvvho7dmyjLhb9+1JTUzdt2uTp6ens7Cw1QlFR0blz55KTk8vKygwMDOzs7GbMmNG2bVs50z99+rRIJJJ6aPjw4R06dFAw30hpiESi48ePNxjN3d2dyWTKjtNg1dSE50IqSigUfv/99wDQu3dvPz+/+qLt2bPn2bNnAwcO9PT0lBohIyPjv//9LwDIiIPUg0gkiomJiYmJKSws5HA4gwYNmjp1qq6ubsOfBACAlJSUlJQUqYeMjIycnJzEQ/h8/qVLl+7du/fu3TsdHZ0ePXpMmTKlR48eDZ7lzp07f/75p52d3YIFC+TMmMphcLlceaNqaDZrVppWVVXV27dvQSRqb2IitX2shCorBZWCim+OmdEhyrwoxeXLl+fPn8/j8egQBoOxaNGiX375hcFgyJPCTz/9FBQUJN4e1dPT27Nnz8yZMyVixsTEeHt7f/z4UTzQ2to6LCysW7du4oHZ2dmzZ89OTU0VDzQwMDhw4IBEk5rP53///fenTp2SOFfnzp2PHTvWr18/8cBHjx55eHi8fv1aPNDe3v7EiRMWFhbyXGzLKigoMDMzazieeqmoqBg7duyTJ0/+85//kDaKhF27dm3YsKGqqko8kKKoHTt2zJtXz9Z9YrKzs7/44ov6joaHh0+YMEGBbKuQ1lCuampqDAwMGoz24cMHHR0dGRHkqZqa6lyqrjWUq/rQZYDBYERFRQ0bNkxqtClTpsTGxs6ePfuPP/6QGmHlypX79u0DAENDw8zMTPmb12pMLcsVn8+fNWtWXFyceGDXrl2PHz/ep08feVKYP3/+yZMnpR5ycHC4ffs2/eP169d9fX2LiorE4zAYjG+//Xbbtm1Sb3ATJSUlAwYMePPmjYuLy+nTp+XJlTJz2fbpfcSqT+VKDZ9QVVdXh585nfbsWR87OwaD8TQpqWevXq4zZ2tqqlKHUMk9ePDAy8tLIBA4Ozv7+vpSFHXx4sWQkJCdO3fq6+sHBgY2mMLevXu3b9/OZDL9/f0nTpzI5XJDQkJiY2N9fX1NTEyGDx9Ox0xNTXVzcxMIBNbW1qtWrbKwsHj69OmWLVvS09MnTpz44MEDfX19EpPP50+ZMuXly5cGBgaBgYF9+/YtKCjYsWPH06dP58yZEx0dPWDAADrZb7755vz58wwGY+7cuePHj+dwOElJSUFBQa9fv540adLt27etrKxIzIyMDGdnZy6Xa2RktGLFiv79+7979y44OPjmzZsjR46Mj483Nzdv0t8uagIVFRUzZ8588uRJfRFCQkJWr14NAEOHDvX09DQ3N3/16tWePXtSUlL8/Pz09PSmT58u+xRPnz4FAC0tLbqoiGvTps3nXQFSCgwGo1evXvUdff78uUgksrS0lP39ImfV1CTnQupBJBL5+fndu3ePzWY39rNVVVXkXmGnTp3y8vLOnj07d+7cZsgjanne3t5xcXEcDmf16tUODg45OTnbtm3LyMiYNm1aQkJC+/btG0yBfJF17NiRbkrRxL/aHj9+7OrqKhAIOnfuvGTJEhsbm7dv34aHh1+6dCkkJEQkEv2///f/6jvF4sWL37x5o+glqg6u3HjlApV4bdu2PfCHwOKPZeTH4o9lSxYv2b49qMUz1uDrQ3FJfn7+/JDab0NF5KW0Ro8eTVHUnDlzxANDQ0MpijIyMsrLy5P98Y8fP5qYmFAUtW/fPjpQKBR6enpSFNW/f3+hUEiHf/311xRF2djYcLlcOvDFixdt27alKOrXX3+lA3///XeKogwMDJ48eUIH8vn8vn37UhTl7OxMB96+fZuiKIqiDh06JJ6x/Pz8zp07UxTl6elJBzo7O1MUZWFhkZWVRQfW1NS4u7tTFOXm5ib7YpVBfn5+S2fhX5Wenk7+04ndu3dLRODxeKamphRF+fj4iBe26urqcePGURTVrVu32tpa2WfZtGkTRVGTJk1q+gtQEa2tXEkIDg6mKMrU1DQjI0N2TPmrps8/lxpozeWqurqaErN06VKp0SZPnkxRlLe3t9Sj4eHhFEXZ2dmROmr48OHNmWWVoX7l6tq1axRF6evri1csJSUl9vb2FEUtW7aswRQqKysNDAwoirp7967smKQhZG9vL94SE4lEP/30E0VRbDab3PGp68SJE3R5njVrlhyXpezoJjpppdPlSt0WpXj9OufRw8SvRoykh/lpaWk5Dhr8MPFBUWFhy+ZNTv/14IfMB/JSTvfv309ISACAjRs3iof7+vra2NgIBIJjx47JTuHgwYNcLtfc3Pzbb7+lAxkMxtatW1ksVmpq6p07d+hw8n7u3Ll6enp0YLdu3caNGwcAN2/elIg5ePBgOzs7OlBHR2f+/PkAcPv2baFQSALPnz8PAL169fLy8hLPmJmZ2aJFiwAgKiqKhOTk5Ny4cQMAfv75Z0tLSzomk8ncsWMHk8m8dOlSWlqa7OtF/xoul7thw4ZBgwalpaV16tTJyEj63tixsbFlZWUAsHXrVvERqiwWa9OmTQCQn5+flJQk+1zkxt6XX37ZZLlHquPhw4fkUfyuXbu6d+8uO7L8VdPnnwuphy5dugDA77//Lv4dJ6ejR48CwKhRo8j4+cTExAZrM6SKdu7cCQAzZswQr1gMDAzWr18PAH/++Sefz5edwrNnz6qrq5lMpuzxgR8+fIiPjweAdevWibfEAGDNmjVsNlskEl29erXuB3NycpYtW8Zms0eMGCHvVSk9uoku0UpXtw5VYUEBAPB4/2diGBluzhc0ULCQnK5cuQIA1tbWEvOXGAzGxIkTAeDy5cvypDBu3DiJqdWmpqZk8lJERAQdKBKJAKDuRDjyeLq6uloivO54GDIkXSgU1tbWkhCyBobU4emkvcLj8UhN9PDhQ3JpU6ZMkYhpZmZGFuGIjo6Wfb3oX3P8+PGgoCCBQDB58uTbt28bGxtLjVZdXe3g4ODg4NCuXTuJQ/T82nfv3sk+F+lQOTg4fHaukYqpqqqaP39+VVXV9OnT6875rI88VVNTnQupuh9++KFr164ikWjhwoXic5Ub9ObNGzKjZtq0aT179iRN7dDQ0ObKKGohfD6fdLbrLrnk5OSkqanJ4/GuX78uOxHyLdazZ0/Zs+zev38/cOBAc3PzujcQWSwWudf89u1biUNCoXD+/PllZWVbtmyROjBezahbh8q4XTsAiI2J5paV0YHp6c+NjY3NzTu3XL7USnJyMgCI3xGh9e7dGwBSUlJqamo+JwXxqS99+/YFgIiICJHY8hXl5eWkpiBHCfKnfv/+fYk/bNLB6927N92g+fnnnx88eCB1yO/z588BQF9fn9QvZCWMNm3a1B1eDABkOThyOUhJ9OvX79KlSydPnqzbWaK5urrevn1bfLotjX7eaGpqKuMsHz9+zMvLAwAHB4fy8vJbt25dunTp/v37sks+Ug+7d+/OyMho06bN9u3b5Ykvf9X0+edC6kFXV3f//v0MBiMnJ2ft2rXyf/DYsWNCobBTp05DhgwBAA8PDwAICwuTfwUypBLS09PJikr29vYSh9hsdteuXeH/NqWkEr8t+OLFi4iIiOjo6Pz8fIlo1tbW165de/78OXlwKk4gELx69QqkfWPu2LHjzp0748aNI4/i1Z66dai6drWysOhSWlq6fdvW9+/fAcDDxAfPUlN95y9QlXVmP5YzinlAXsqJLHbXubOUDmqnTp0AoKampqCgoL6Pl5SUkJpd6vp4JAXx9fTWrl2rp6d3//59Hx+frKysmpqa1NTUWbNm5ebmmpiYkBF6hLe3t7W1dVlZ2YwZM+7fv19dXZ2fn79ixYqLFy/SQ7lk4/F45E7e+PHjSQhZWqCiokJiLTji/fv3ACDjYtG/bN68efHx8aNHj1Y4BbLWcIcOHUjfvj7ke4jNZgcHB1taWo4fP97d3X3kyJFdu3YNDg5W+OxI+eXn5//nP/8BgOXLl8vuddMUrpoUOBdSG0OHDiUrpx84cICMPG+QSCT6888/AcDd3V1DQwMAZs+erampWV5efuLEiebMLPq30c0kqcti1W1KSUW+yAQCwZAhQ+zt7WfPnj1t2rTu3btPmzYtOztbnmwcOHCAx+MxGAwyC4P2+PHjX375pW3btvv375cnHRVCN9ElWunq1qECgIX+3xsaGubnv9m86aeIyxcjLl9a/ePa7nIsk68kFh6m5u0D8lJO5KGN1OV96ZXNSkpK6vt4cXExeSP1mQ8Zniu+QnqfPn1iYmKGDRsWFhbWu3dvQ0PDAQMG3Lhxw9nZ+dq1a+Jb/ejp6UVHR3t5eT1+/HjkyJEcDqd79+779++3tbW9dOnSmDFjGry0pUuX5ufns1isVav+WbGerItdU1MTExMjETkvL488zWjUeAzUrCiK+pyPHz16lAw3Xb16tezV/8mchPLy8p07dxoYGDg5OQ0bNkxXV/fDhw/Lly9fsmTJ52QDKbOdO3eWl5cbGhrK2CZIgsJVkwLnQupk48aNVlZWIpHIz89Pni+aW7dukXYwvayfsbExuT+Io/7UDGkm6ejoaGtr1z1KGmMyWmIAIBKJyPia8PDw5OTkgQMHTpgwgYzNi46OHj58OBmwIwPZ6REAZs6cKT69s6KiwsfHp7q6evfu3fVtLqq66Ca6RCtdDTtU7dq1C/xxrZmZGY/Hu3D+3NBhwzvhqtZNijyrkboRCh0o9XkOQc96kjpmlwSKz4wSCoURERGk66KlpdW2bVty4y0tLS0xMVHi4/Hx8QkJCSKRSENDo23btmTmVW5u7s2bNxsci7V27VpyD2/z5s304sU2NjakT7Vy5UrxdT+rqqoCAgLIzAcc5aUeIiMjyQNPFxcXb29v2ZFJh0pbW3v37t3p6ennz5+/cuUKWcofAEJDQ8PDw/+FPKN/2cePHw8dOgQA/v7+EpOzZVOgalL4XEhtUBS1f/9+DQ2N169fk20eZDty5AgADBw4UHyGM+lcpaWl/f33382XVfQvk9ESo8NltMQAIDs7myzONHTo0JSUlLi4uPDw8KdPn544cUJPT6+4uHju3Lky1st5+fLllClTysvLLSwsfvvtN/FDgYGBGRkZc+bMqTv5XI2pYYcKAASCSl2KsrGxBYCTJ/48feqE+PQb9JnIcH+ps6jpvz0ZAyzp3d+kpkACxT/u6+v7yy+/8Pn8ffv2FRQU5OTk5Obmrlq1Kicnx8vLS/xp8h9//DFv3rz09PRFixbl5OTk5OQUFhYePHiQrB8oY7d4kUi0YsUKMqXqu+++CwgIED+6Y8cOFouVk5Pj6Oi4cePGM2fO7N69e8iQITExMWSQutT7Q0i1hIWFeXh4VFdXDxo0iJQZ2fEXL178+++/h4eH+/j4kB4+ALRt2/bYsWPW1tYAIGNTDqS6QkNDy8vL2Wz2d999J/+nFKuaFDsXUjNDhgzx9/cHgD/++ENi/1YJZWVlFy9eBLHHU8T48ePJhNIDBw40Z07Rv4q0xOrr8JBw2VNd2rVrFxYWFhQUdPbsWfFJHFOmTCHfX2lpaWQJsbpSUlKcnJwKCgrat29/4cIFDodDH4qKijp48GDnzp0lellqTw07VNnZWdv/s8XN3WPp8pVjxjoBQEz01bPhYS2dL/VB9hmsrKyse0ggEJA3MkZe0dsU0pHrpkA/vLp161ZYWBgAHD582NPTk9x0MTQ03LBhw08//QQA69atI/O8y8rKyMzdRYsW/frrr2S9bG1tbTc3t3PnzmloaFy4cCEyMrLuGSsqKjw8PEjHbOXKldu2bZOIMHTo0OPHj+vr6xcXF2/bts3LyyswMDA7Ozs4OJhsQCx19CNSIUFBQWR8wqhRoy5evCjP04A+ffp4eHiMGjVKIlxbW9vHxwcAkpKSysSWxkHqgeyXOnHiRENDQzk/onDVpMC5kFr66aefyBMnf39/GWtLhIWFkcVpr1y54iPm22+/JXf9Lly4QOb9IjVAmlJS21F0uOwx8G3atJk4cSLZyF7ikJubG6l2pK7af+3atbFjxxYWFlpYWMTExPQQm1Pz7t07Pz8/DQ2N33//vbXtbs9q6Qw0saqqqr27d/axs+/a1QoA3Nw9dHWpy5cuXL0SNWjwkI4dO7V0BtWBsbHxixcvpNbL9ErTMhZY43A4TCaztrZWRgr0x//66y8AsLGxqbsw6KJFi4KCgsrKyiIjI729vW/fvl1aWspgMJYvXy4R09HRccyYMdHR0eHh4WREFu3t27eurq4PHz5kMplBQUHi+2KJc3FxSU1NPXHiBFkzx9bW1t3d3dTUlExsEJ/HhVRLTU1NQEAA2bbFw8Nj7969MtZbkxN5QiUSid6+fSt1oiBSUc+ePUtPTweAWbNmyf8pxaomxc6F1JKurm5wcLCTk1Nubm5gYODevXulRiP1GABI7Z8DQFVV1dGjR5ctW9ZcGUX/IrIpSFVVFZfLrdt1kWhKNZaGhkb37t0fPHhQVFQkceiPP/5YunRpTU2Nvb392bNnJRbL2bRp07t378zNzaOiouj9PAHg/v37AJCWlvbjjz8CwHfffdexY0fF8qa01K1D9eD+vZKSkj59Pq3HPWXqtLdvi+7dTXiYmIgdqibRs2fPhISEnJycuofIkjIcDkf8+a8EbW1tS0vLzMxMGSnQ478lfhSnqanZrVu3R48ekSU7SUwDAwOpWw/16tUrOjpa4oyZmZmTJ0/Oyclp06bN0aNHnZyc6sszABgZGX3//fcSgY8fPwYAshsVUjkVFRWzZ8+Oi4tjMBjr1q374YcfGvVxMvWFHsIqEQ6fvUIGUjZkPBWHw5FnhRuaAlWTwudC6mrQoEHffffd7t27Dx8+PH369LoR0tLSyK6JK1asoOcAi/vtt99SU1NJa7jBIc1I+fXs2ZO8ycnJITO9xZFqR57dn/h8vtQJ7eSLTOJbbOPGjWQUj4uLyx9//EEPOKKRVcdyc3PJpsMSXr58ScJdXV2xQ6XsyOgviVl6kyZNuXc3oaystIUypW769u176NChe/fu1T109+5dABgwYIDsFL788svMzMx79+6RoeHiSLJ0CuS+S2FhodR0yCo35E+aPAooKyuTWjuQmOJVQ05OjrOz85s3b8zMzM6fP1/fGtm1tbXnzp0rLCycOXOmxJ2Y169fkxVy1GkL8NajsrJy5syZN27c0NTUDAkJmT17tvyfff/+vZ2dXWlp6a5du8gAP3FkIVoOh2NmZtaUOUYtjWxcNmLEiEY9xmxs1fQ550JqbMOGDVeuXHnx4oW/v3/dYRFkOUUBu6gAAA2VSURBVApDQ8Mff/xR6rReHo+3ePHi7Ozs2NjYsWPH/hs5Rs3JzMzMzMysoKDg7t27Eh2qvLw8soaW7MbYmjVr9u/fb2RklJmZKXGosrKSPCEXv19M96b8/Py2bdtGTx4WN3HiRKk74sTFxSUnJ1tZWbm4uACA+i39B+o3h4rMqyso+D+7kpHvMIsuli2Tp0bisEVGekBeymnSpElMJrOoqOjq1avi4fSM2AbHqEydOhUAoqKiJEb9kSVfWSzWtGnTSAhZ9SExMbHuH3xiYiJZH3bQoEH0v0Kh8MyZMxIxeTweefRM4gBAZWXlrFmz3rx506FDh9jYWBk7DjGZzJUrVwYGBl64cEHiEJlw6ejoaGtrK/t6kRJasWLFjRs3WCzW6dOnG9WbAgBjY2NDQ0ORSFS3sJWXlx8+fBgApk6direB1YlQKHz06BEAODo6NuqDjaqaPvNcSI2RgX8aGhp5eXlkABWturr65MmTADBjxoz6FkmaNWsWaQvh+ulqgzSljh07JhFOBn9269aN7NhbH1tb28rKyoKCglu3bkkcOnz4cEVFBZPJnDx5Mgk5c+YM6U2tWLEiKChIam8KAObMmbNFGtK169WrF/lRpR9P0U10iVa6unWoHL7s29XKKjr6anl5OR1469ZNc/POgwYNbsGMyS/Yq+KoP5CXcjI2NiabrwcEBLx8+ZIEkm0HSktLLSwsXF1d6cjv37/39/f39/ePjo6mA52dna2trcvLy728vOi9NV6/fk2mJLm6utJ3OFxdXTt16iQUCj08PMS3qMvMzPTy8gKAfv36DR06FAAsLS1J5RIYGCheO3C53K+//vrdu3dt2rT55ptvSOCOHTtSUlIAYNmyZcXFxY+koQduzZw5EwC2bduWm5tLJxsaGkpWTNqwYcPn/0rRv+zWrVt//PEHALi5ubVr105qAaB38JBahsnCazdv3tyyZQu9zhKXy503b97r16/19PTorcyQesjMzCSrjHz55Zcyot25c4eUFnpbzEZVTY06F2ptHB0dJRahJSIjI8ndSXd39/o+q6+vT9awvnLlSl5eXvNlEv1r/Pz8tLW1ExMT169fT69lHRcXFxQUBADLli0T7/YcOXLE399/8eLFdMjUqVPJo86FCxfSbTkA+Ouvv9asWQMA33zzDdk1uLS0lHzQ1tZ28uTJUr8xxRtI6o1uoku00tVtyJ+GhsaSpSuOHTm06af1w4YP19Nrk57+XCQSLV+5qu5UB6SwzZs33759Oysra+DAgc7Oznp6erGxsW/evKEo6ujRo+K/6tLSUjIUwcrKip6kpKmpuW/fPhcXl+vXr9vZ2Tk5OfH5/KioKB6P16NHj+3bt9Mf19XVPX78+KRJk1JSUuzs7EaNGtW5c+fc3NzY2Njq6uqOHTsePXqUfg6wZ8+e58+fP3/+fPz48QMHDvziiy+4XG5MTMzHjx+1tbUPHz7cvn17AKiqqtqzZw/5yIoVK+q7xqysLPJUOjAw8PLly7m5uX379nVycjI0NLx//35qaioAbN26lSz0h1QLvab5n3/++eeff0qNc/jwYdKXllqGFyxYEB8fHxER8csvv4SHhw8YMKCqqiomJqa4uFhLS+vIkSPiq9AiNUA3F6QOaKFlZGSQ0uLl5WVp+c+wCDmrpsaeC7VC69evj4qKysjIEA8kTyS6dOki8ahTgpeX16lTp2praw8dOrRu3brmzShqflZWVhs3bgwMDNyxY8fVq1cHDhyYk5MTFxcnFApnzJgxb9488cjx8fGnT5/W1tamZzdRFHXo0KGpU6e+evVqwIABI0eO7NixY0pKCpm7MXLkyF9++YXEPHToUGlpKQCkpqbW1+bx9fXdtWtXM16t0lPDPgZFUQv8vuNyuWTgX7/+/fX0WtfSjf+Ctm3bRkdHL1++/PLly2fPniWBNjY2u3bt6tevnzwpODo6RkVFLV269PHjx+TLgMFgjB8/fteuXWRZYVq/fv1u3bq1Zs2aqKgoeksELS0tDw+PX375RXwRGw6HEx8fv2nTpsOHD9+7d49Mx2IwGF999dWWLVvs7e1JtBcvXpCqQf6LjY2NXbJkyZUrV86fP08CLS0tN2zYQBrcSOVIDJhRAJPJPHHixH//+9+dO3emp6eT4eYMBmPYsGFbt26lCxtSG2QmJ4vFkphLKQ85q6YmORdSbzo6OsHBwWPGjKEfjBcUFMTGxgKAm5ub7M8OHTq0a9euWVlZhw8fXr16Nd5lVgMBAQFt27Zdv359SkoKGXejo6Pj6+v7888/yzPmfOjQoTdv3ly1atX169fpRfmMjIz8/f2XL19O9h+HpvjGbA0YMvY0kIyqgVNjm1dlpaBSUKGla0BPUNbVatkcNezdu3dpaWkCgaBLly7iexHI7+XLl9nZ2RoaGjY2NrJbD2VlZcnJyVwul8Ph/P/27j+oC/qO4/gLUxNIMachZZz9EGJI4zzztLKyX84iU/PHGFNTk5npGHHk3JzzPDdnHHHkj4xSQ0YsMXXEcvbLykrPPM+FYmU/PPvBl2JlI41A/e4P34bXvTX9zu9E93z89VKfx33/+Ih85Pv9kpKScpy3UGtsbKyqqqqrq4uKikpKSnLfXCsEtbW11dXVTU1N8fHxiYmJZ9ArZGpqaniDhDA5ePDgjh07AoFAZGRkQkLCWfla22PhXJ2sMH1qOstwrhAOZ/G5OnToUFVVVSAQiI6OTk1NPZEfpfg9dXV11dXVDQ0NsbGxycnJXLaP45vG5h3ZtvlccaFqQQ5fqCaWNP+Fr+RVGDgVzuJ/SHAaca4QDpwrhAPnCqdE2oPNu/KB5nN1tr0pBQAAAAD8z3ChAgAAAIAQcaECAAAAgBBxoQIAAACAEHGhAgAAAIAQcaECAAAAgBDxTvMtTrs2wTPoBxwBAAAA/w+O9RNiuVC1OMWZ+6Ojo0/3owAAAADQrPzX/u/zlD8AAAAACBEXKgAAAAAIERcqAAAAAAgRr6FqcUYtbH4BVeUDp/GBAAAAADBpDzbvo79K5ztUAAAAABAiLlQAAAAAECIuVAAAAAAQIl5D1aK5z9Ssb1D6w07cIVJPTrX96ZfKfMxpLjxfRRNtv1OjnBKnSYxT/mjbWz7QrJVO0/tSzRpue/0O5f/daQb8WDlptiu2qOglpxncW5k32i59TWVvOE3GtUq/2vbiF1S51Wkm3ay0XrbzntErO50m9w5dn2R7Zrm2fug0s0eo1yW2s5drV8BpCsaoR1fb9xQpsNdpHs9U1462RxZq/7dOsyJLUedK0qGgBuc5QasIVeTa/uobZcx3mo5R+ssU2x//S5OWOE23TvrD7bZ3fqLcUqdJukh5GbY3v6fZq5ymz+WaOcz2i9tV8KzT3NRT2bfZXv2mlqx3mqFXacIA2yUb9NRGpxndX6P62V74nNZuc5r7btWgVNvzKrThbaeZNlj9r7A9Y4W27XaaOSOV2t12VrHer3WawrG6LNb2+MX67N9Os/SXuiDG9vACNTQ5zcpstWsjSQcOaki+E7Q+R2tybH/xtcYscppO52n5ZNt76jR5qdPEd9ai8bZ3fKxpTzpNz4v153TbG3fpj6udpm8PzRhq+/kqFa793p/HSbolRVmD7NdPb9ayl52Pc1cfjbvBdvGrKt/kNGOv04i+tuf/Q+vecpqpAzXwJ7bnrtHr7zrN9CG6JsH2b/+qt/Y4zdx0pVxse8oy7f7caRaMU/cutu9+RHX1TvPEverc3vawh9R4wGlW3a+2rSWp8YCGPeQEbVtr1f226+p19yNO07m9nrjX9u7PNWWZ03TvogXjbFd9pOllTnNlvP70M9uvv6u5a5zmmgRNH2J73T81f53TDLxSU39qu3yTil91mhF9NfY628te1tObnWbcDbqrj+3CtXq+6vCMO7rJGqRbUmzPWa1Nu5yP87uh6tfD9m/KtP0jp5n3cyV3sz15qfbUOc2i8YrvbHvMIn3xtdMsn6xO59kekq8DB51mTY5anyNJDU0aXuAE7dpoZbbtz77S+Eed5oIOWjrJ9vu1yip2mstiVTjW9rbdmrHCaVK7a85I2xve1rwKp+l/haYNtr12mxY+5zSDUnXfrbaf2qiSDU4zqp9G97e9ZL1Wv+k0EwZo6FW2C57Vi9udJvs23dTT9uxV2vye08wcpj6X284t1c5PnCYvQ0kX2f7937oEvE/diyeo249s/2KB9u53mtKpiom0PThPh4JOU5GrVhGStP9bjSx0gqhztSLLdmCv7ilymq4d9Xim7V0BZS93mh5dVTDG9tYPNbPcaXpdotkjbL+yU3nPOM31Scq9w3blVi1+wWnSemnSzbbL3lDpa06TfrUyrrVd9JIqtjjNxBt1Z2/b+ZVaX+00ObdrQLLtWSu15QOnmTVcvS890pfonRqnyR+txCOfQjIf06dfOk3RRF14/pHH/7DqG5ym7Fdq38720V+NHwvfoQIAAMDxRESc7kcAtGBcqAAAAAAgRFyoAAAAACBEEfX13hPDPfv27QvrQ0EwGAwGgx06dIiOjv7hGjhhNTU1cXFxP9wBJ4NzhXDgXCEcOFcIh+/O1UlcqE68xH8jGAxG8FRlAAAA4ExwEu/y16oVzw8Mr8PfoYqJieE7VDi1+J85hAPnCuHAuUI4cK4QDt+dq/8AUul46tsJBC0AAAAASUVORK5CYII=;" parent="1" vertex="1">
                    <mxGeometry x="-67.25" y="200" width="387.85" height="183" as="geometry"/>
                </mxCell>
                <mxCell id="8" style="edgeStyle=none;html=1;exitX=1;exitY=0.5;exitDx=0;exitDy=0;" parent="1" source="7" target="9" edge="1">
                    <mxGeometry relative="1" as="geometry">
                        <mxPoint x="400" y="220" as="targetPoint"/>
                    </mxGeometry>
                </mxCell>
                <mxCell id="7" value="" style="rounded=0;whiteSpace=wrap;html=1;fillColor=none;strokeColor=#FF3333;" parent="1" vertex="1">
                    <mxGeometry x="-20" y="220" width="330" height="20" as="geometry"/>
                </mxCell>
                <mxCell id="9" value="让用户选择：1.哪些列需要参与运算？（默认全部，除去最后一列）&lt;br&gt;2.哪一个列是需要进行预测的列？（默认最后一列，需要注意的是需要预测的只能是一列，而且不能与参与运算的列重复）" style="text;html=1;strokeColor=none;fillColor=none;align=center;verticalAlign=middle;whiteSpace=wrap;rounded=0;" parent="1" vertex="1">
                    <mxGeometry x="395" y="205" width="255" height="135" as="geometry"/>
                </mxCell>
                <mxCell id="12" value="必须包含的部分：&lt;br&gt;{file: 文件的全部内容，&lt;br&gt;data_columns: [文件参与运算的列]，&lt;br&gt;pred_column: 文件参与预测的列，&lt;br&gt;preproc：[预处理算法的序列]&lt;br&gt;}" style="text;html=1;strokeColor=none;fillColor=none;align=center;verticalAlign=middle;whiteSpace=wrap;rounded=0;" parent="1" vertex="1">
                    <mxGeometry x="280" y="450" width="230" height="230" as="geometry"/>
                </mxCell>
                <mxCell id="15" style="edgeStyle=none;html=1;exitX=0.5;exitY=1;exitDx=0;exitDy=0;" parent="1" source="14" edge="1">
                    <mxGeometry relative="1" as="geometry">
                        <mxPoint x="495" y="730" as="targetPoint"/>
                    </mxGeometry>
                </mxCell>
                <mxCell id="14" value="" style="rounded=0;whiteSpace=wrap;html=1;strokeColor=#FF3333;fillColor=none;" parent="1" vertex="1">
                    <mxGeometry x="310" y="580" width="170" height="20" as="geometry"/>
                </mxCell>
                <mxCell id="21" style="edgeStyle=none;html=1;exitX=0;exitY=0.5;exitDx=0;exitDy=0;" parent="1" source="16" target="22" edge="1">
                    <mxGeometry relative="1" as="geometry">
                        <mxPoint x="140" y="760" as="targetPoint"/>
                    </mxGeometry>
                </mxCell>
                <mxCell id="16" value="预处理算法的先后步骤是不能改变的（可以缺省某一个步骤，但相对的顺序不能变）。&lt;br&gt;缺失值填补-&amp;gt;归一化-&amp;gt;离群数据筛选-&amp;gt;单列相关性预测" style="rounded=0;whiteSpace=wrap;html=1;" parent="1" vertex="1">
                    <mxGeometry x="440" y="730" width="330" height="60" as="geometry"/>
                </mxCell>
                <mxCell id="18" style="edgeStyle=none;html=1;exitX=0.5;exitY=0;exitDx=0;exitDy=0;entryX=0.5;entryY=1;entryDx=0;entryDy=0;" parent="1" source="17" target="9" edge="1">
                    <mxGeometry relative="1" as="geometry">
                        <mxPoint x="700" y="570" as="targetPoint"/>
                    </mxGeometry>
                </mxCell>
                <mxCell id="19" value="执行单列相关性预测之后，&lt;br&gt;允许用户重选数据集参与计算的列" style="edgeLabel;html=1;align=center;verticalAlign=middle;resizable=0;points=[];" parent="18" vertex="1" connectable="0">
                    <mxGeometry x="-0.0583" y="-1" relative="1" as="geometry">
                        <mxPoint as="offset"/>
                    </mxGeometry>
                </mxCell>
                <mxCell id="17" value="" style="rounded=0;whiteSpace=wrap;html=1;strokeColor=#FF3333;fillColor=none;" parent="1" vertex="1">
                    <mxGeometry x="660" y="760" width="90" height="20" as="geometry"/>
                </mxCell>
                <mxCell id="20" value="preproc中数据的样子：&lt;br&gt;{type:预处理的步骤&lt;br&gt;alg:预处理的算法，如果没有传递空值null&lt;br&gt;}" style="text;html=1;strokeColor=none;fillColor=none;align=center;verticalAlign=middle;whiteSpace=wrap;rounded=0;" parent="1" vertex="1">
                    <mxGeometry x="160" y="600" width="253.32" height="90" as="geometry"/>
                </mxCell>
                <mxCell id="23" style="edgeStyle=none;html=1;exitX=0.5;exitY=1;exitDx=0;exitDy=0;" parent="1" source="22" target="24" edge="1">
                    <mxGeometry relative="1" as="geometry">
                        <mxPoint x="80" y="870" as="targetPoint"/>
                    </mxGeometry>
                </mxCell>
                <mxCell id="22" value="传递预处理完成的数据给前端，展示部分处理完成的数据（比如说前5行）" style="rounded=0;whiteSpace=wrap;html=1;" parent="1" vertex="1">
                    <mxGeometry x="20" y="730" width="120" height="60" as="geometry"/>
                </mxCell>
                <mxCell id="25" style="edgeStyle=none;html=1;exitX=0.5;exitY=1;exitDx=0;exitDy=0;" parent="1" source="24" edge="1">
                    <mxGeometry relative="1" as="geometry">
                        <mxPoint x="80" y="1000" as="targetPoint"/>
                    </mxGeometry>
                </mxCell>
                <mxCell id="24" value="选择算法，正式开始预测学习" style="rounded=0;whiteSpace=wrap;html=1;" parent="1" vertex="1">
                    <mxGeometry x="20" y="860" width="120" height="60" as="geometry"/>
                </mxCell>
                <mxCell id="27" value="" style="edgeStyle=none;html=1;exitX=0.5;exitY=0;exitDx=0;exitDy=0;" parent="1" source="26" target="24" edge="1">
                    <mxGeometry relative="1" as="geometry"/>
                </mxCell>
                <mxCell id="26" value="..." style="text;html=1;strokeColor=none;fillColor=none;align=center;verticalAlign=middle;whiteSpace=wrap;rounded=0;" parent="1" vertex="1">
                    <mxGeometry x="50" y="1000" width="60" height="30" as="geometry"/>
                </mxCell>
            </root>
        </mxGraphModel>
    </diagram>
    <diagram id="AeSoRKNzSrgilN9Zcgj4" name="Page-2">
        <mxGraphModel dx="732" dy="569" grid="1" gridSize="10" guides="1" tooltips="1" connect="1" arrows="1" fold="1" page="1" pageScale="1" pageWidth="827" pageHeight="1169" math="0" shadow="0">
            <root>
                <mxCell id="EXEV-R2b_7Gs2iqqfUrb-0"/>
                <mxCell id="EXEV-R2b_7Gs2iqqfUrb-1" parent="EXEV-R2b_7Gs2iqqfUrb-0"/>
            </root>
        </mxGraphModel>
    </diagram>
</mxfile>